<svg xmlns="http://www.w3.org/2000/svg" viewBox="0 0 689.19 661.24"><defs><style>.cls-1{fill:#4b791c;}.cls-2{fill:#f9faf8;}.cls-3{fill:#15722e;}.cls-4{fill:#fcfaf4;}.cls-5{fill:#e29716;}.cls-6{fill:#156423;}.cls-7{fill:#32843e;}.cls-8{fill:#08420a;}.cls-9{fill:#1d7333;}.cls-10{fill:#115618;}.cls-11{fill:#bf9214;}.cls-12{fill:#154918;}.cls-13{fill:#338339;}.cls-14{fill:#b79d23;}.cls-15{fill:#106621;}.cls-16{fill:#0e5d19;}.cls-17{fill:#f2940c;}.cls-18{fill:#a19a20;}.cls-19{fill:#fbf8ed;}.cls-20{fill:#21813b;}.cls-21{fill:#0f4513;}.cls-22{fill:#bc9a14;}.cls-23{fill:#64913a;}.cls-24{fill:#0b460d;}.cls-25{fill:#9ca138;}.cls-26{fill:#e8980a;}.cls-27{fill:#1c3d1d;}.cls-28{fill:#17501b;}.cls-29{fill:#1a3f1c;}.cls-30{fill:#f2960e;}.cls-31{fill:#085113;}.cls-32{fill:#0e3a11;}.cls-33{fill:#43863f;}.cls-34{fill:#d49816;}.cls-35{fill:#789533;}.cls-36{fill:#1b511e;}.cls-37{fill:#eb9518;}.cls-38{fill:#184419;}.cls-39{fill:#13772e;}.cls-40{fill:#18541f;}.cls-41{fill:#1d3a1f;}.cls-42{fill:#c69622;}.cls-43{fill:#558836;}.cls-44{fill:#b39523;}.cls-45{fill:#0f3a11;}.cls-46{fill:#13521a;}.cls-47{fill:#116423;}.cls-48{fill:#6c8b3e;}.cls-49{fill:#207e37;}.cls-50{fill:#f0930a;}.cls-51{fill:#1a692c;}.cls-52{fill:#1c491d;}.cls-53{fill:#204b21;}.cls-54{fill:#e58f13;}.cls-55{fill:#8f9a27;}.cls-56{fill:#e59c24;}.cls-57{fill:#153514;}.cls-58{fill:#0c4c0f;}.cls-59{fill:#176f2b;}.cls-60{fill:#257b3a;}.cls-61{fill:#e19721;}.cls-62{fill:#0e4714;}.cls-63{fill:#1f7f35;}.cls-64{fill:#b28c10;}.cls-65{fill:#133b14;}.cls-66{fill:#134214;}.cls-67{fill:#e89114;}.cls-68{fill:#b8971b;}.cls-69{fill:#1c6f2e;}.cls-70{fill:#e9a227;}.cls-71{fill:#d0a73b;}.cls-72{fill:#18461a;}.cls-73{fill:#1c511f;}.cls-74{fill:#c4a020;}.cls-75{fill:#d39223;}.cls-76{fill:#1c381e;}.cls-77{fill:#ee9212;}.cls-78{fill:#145116;}.cls-79{fill:#14511a;}.cls-80{fill:#ec9b29;}.cls-81{fill:#1a3f1b;}.cls-82{fill:#164117;}.cls-83{fill:#0e4d13;}.cls-84{fill:#ec9620;}.cls-85{fill:#ea9726;}.cls-86{fill:#114c18;}.cls-87{fill:#134c17;}.cls-88{fill:#0e3f11;}.cls-89{fill:#eb991f;}.cls-90{fill:#044b08;}.cls-91{fill:#3a7945;}.cls-92{fill:#09661b;}.cls-93{fill:#186e30;}.cls-94{fill:#307a40;}.cls-95{fill:#1e331d;}.cls-96{fill:#1b461c;}.cls-97{fill:#177430;}.cls-98{fill:#eb991d;}.cls-99{fill:#548f41;}.cls-100{fill:#568c43;}.cls-101{fill:#83953b;}.cls-102{fill:#143e15;}.cls-103{fill:#133415;}.cls-104{fill:#b19117;}.cls-105{fill:#d89728;}.cls-106{fill:#1e7334;}.cls-107{fill:#e89217;}.cls-108{fill:#ee8e0c;}.cls-109{fill:#9c9631;}.cls-110{fill:#ea9e0d;}.cls-111{fill:#1e4d1e;}.cls-112{fill:#204d22;}.cls-113{fill:#d79c2b;}.cls-114{fill:#2f552b;}.cls-115{fill:#d78d16;}.cls-116{fill:#114115;}.cls-117{fill:#164318;}.cls-118{fill:#0a6b1d;}.cls-119{fill:#18441a;}.cls-120{fill:#0b4e12;}.cls-121{fill:#1d672a;}.cls-122{fill:#124a16;}.cls-123{fill:#e7ebe4;}.cls-124{fill:#1e471e;}.cls-125{fill:#0c5618;}.cls-126{fill:#c29a12;}.cls-127{fill:#869a30;}.cls-128{fill:#b6a644;}.cls-129{fill:#1e4b1f;}.cls-130{fill:#164216;}.cls-131{fill:#345035;}.cls-132{fill:#da9c2c;}.cls-133{fill:#133a16;}.cls-134{fill:#0c5f1c;}.cls-135{fill:#e79619;}.cls-136{fill:#b39734;}.cls-137{fill:#215424;}.cls-138{fill:#1e4e22;}.cls-139{fill:#1b421c;}.cls-140{fill:#1b7435;}.cls-141{fill:#19461a;}.cls-142{fill:#d7a129;}.cls-143{fill:#d3980e;}.cls-144{fill:#d99526;}.cls-145{fill:#0e6d25;}.cls-146{fill:#404f3f;}.cls-147{fill:#174719;}.cls-148{fill:#cb9a10;}.cls-149{fill:#33733d;}.cls-150{fill:#116a21;}.cls-151{fill:#e39b21;}.cls-152{fill:#1a3f1a;}.cls-153{fill:#1d451d;}.cls-154{fill:#103d12;}.cls-155{fill:#154c17;}.cls-156{fill:#eb9719;}.cls-157{fill:#06560f;}.cls-158{fill:#f29210;}.cls-159{fill:#a59732;}.cls-160{fill:#9e9320;}.cls-161{fill:#2a733a;}.cls-162{fill:#154c1a;}.cls-163{fill:#4b8848;}.cls-164{fill:#265b29;}.cls-165{fill:#1b431e;}.cls-166{fill:#485e45;}.cls-167{fill:#224a23;}.cls-168{fill:#1d4c1d;}.cls-169{fill:#0a621a;}.cls-170{fill:#e59f2c;}.cls-171{fill:#ea9d1d;}.cls-172{fill:#c2a423;}.cls-173{fill:#195b1f;}.cls-174{fill:#cd9022;}.cls-175{fill:#215a25;}.cls-176{fill:#17521e;}.cls-177{fill:#1c441f;}.cls-178{fill:#124c16;}.cls-179{fill:#0a2e0c;}.cls-180{fill:#3f7c3e;}.cls-181{fill:#398133;}.cls-182{fill:#1b491d;}.cls-183{fill:#183f1b;}.cls-184{fill:#1f4b1f;}.cls-185{fill:#28542c;}.cls-186{fill:#36763c;}.cls-187{fill:#989330;}.cls-188{fill:#ef930a;}.cls-189{fill:#d08a17;}.cls-190{fill:#7f8e1d;}.cls-191{fill:#e5ad25;}.cls-192{fill:#196c2a;}.cls-193{fill:#28502b;}.cls-194{fill:#0a390c;}.cls-195{fill:#308545;}.cls-196{fill:#bba438;}.cls-197{fill:#39513b;}.cls-198{fill:#519661;}.cls-199{fill:#be9d2a;}.cls-200{fill:#1b5623;}.cls-201{fill:#f99c00;}.cls-202{fill:#2a3f27;}.cls-203{fill:#1f4621;}.cls-204{fill:#0d350e;}.cls-205{fill:#dae2d7;}.cls-206{fill:#143915;}.cls-207{fill:#164315;}.cls-208{fill:#64912a;}.cls-209{fill:#197b35;}.cls-210{fill:#204721;}.cls-211{fill:#184918;}.cls-212{fill:#21642c;}.cls-213{fill:#326138;}.cls-214{fill:#293f27;}.cls-215{fill:#f5eccb;}.cls-216{fill:#e89d30;}.cls-217{fill:#e99411;}.cls-218{fill:#17441b;}.cls-219{fill:#07480a;}.cls-220{fill:#e08815;}.cls-221{fill:#1c6025;}.cls-222{fill:#d5941e;}.cls-223{fill:#bca22e;}.cls-224{fill:#255426;}.cls-225{fill:#19401a;}.cls-226{fill:#e29c1d;}.cls-227{fill:#095517;}.cls-228{fill:#e78810;}.cls-229{fill:#0a360d;}.cls-230{fill:#2b6c35;}.cls-231{fill:#0c350e;}.cls-232{fill:#084c0e;}</style></defs><g id="图层_2" data-name="图层 2"><g id="图层_1-2" data-name="图层 1"><path class="cls-1" d="M312.56,1.3C322.45,9,322.45,9,324.25,15.11c-.13,3.19-.13,3.19-2.13,6.19a43.43,43.43,0,0,1-6.68.44c-6.23.32-9.23,1.14-14.32,4.56q-2.47,1-5,1.88a31.34,31.34,0,0,0-13.93,10.56,53.72,53.72,0,0,1-7.86,7.51,79.67,79.67,0,0,0-8.74,10.21c-2.83,2.11-3.39,2-6.75,1.62l-3.72-.78q-3.69,5.1-7.31,10.25l-2.09,2.88c-4.75,6.79-7,12.78-8.6,20.87-1.87,5.36-1.87,5.36-4.71,7-1.73.75-3.51,1.39-5.29,2-1.68,1.68-1.28,3.89-1.43,6.19a37.75,37.75,0,0,1-2.57,11.81,133.39,133.39,0,0,0,15.7-15.38,71,71,0,0,1,9.3-8.62,21.74,21.74,0,0,0,4.94-10.56c2.12-7.9,9.15-13.19,15.06-18.44l1.93-1.85c3.15-1.74,6.37-1.55,9.89-1.59,6.34-.1,6.34-.1,12.06-2.56,4.33-2.77,8.08-2.79,13.12-3l2.66-.3c3.53-.27,6.19-.48,9.2,1.55,3.53,3.77,4.94,7.69,6.29,12.59,1,2.44,2.05,3.48,4,5.22,4.27,4.46,3.61,10.41,3.67,16.2,0,3.59,0,3.59,1.19,6,1.23,3.27,1.32,6,1.39,9.46l.11,3.94c0,1.37.05,2.74.08,4.1a155.28,155.28,0,0,0,.93,19.17c1.05,7.14.88,14.48,1.06,21.69.05,2.05.11,4.1.16,6.15l.1,3.67c.19,3.55.65,7,1.18,10.51,0,1.42,0,2.84-.06,4.25a132.54,132.54,0,0,0,1,15.56l.27,2.5a104.72,104.72,0,0,0,1.79,11.69h8l.76-1.69c2-3.63,3.95-6.58,7.6-8.63,3.08-1.95,4.84-4.07,7.08-6.93,2.59-3.27,5.19-6.48,8-9.56a19.24,19.24,0,0,0,4.8-11.21c1.11-7.58,5.45-11.73,10.76-17,2.21-2.18,4.32-4.36,6.38-6.69,3-2.61,4.74-3,8.62-3.31-.25,5.18-1.95,7.38-5.31,11a61.81,61.81,0,0,0-6.29,9.66,28.76,28.76,0,0,1-3,4.34,21.34,21.34,0,0,0-3.11,6.74l-.76,2.42-.56,1.83c4.61-1.5,6.56-5.34,9.07-9.19l2.91-4.34,1.5-2.24c2.86-4.17,5.88-8.22,8.91-12.27a97.12,97.12,0,0,0,6.61-10l-7-1a10.56,10.56,0,0,1-1-4,21.59,21.59,0,0,1,3.5-4.25l2.27-2.4,2.23-2.35c1.07-1.26,2.14-2.54,3.19-3.81A161.82,161.82,0,0,1,429,112.13c2.78-2.52,5.43-5.17,8.08-7.83,4.45-3.72,4.45-3.72,7-5l.38-3.37c.62-3.63.62-3.63,2.12-5.57,2.65-1.12,3.82-1.09,6.63-.93,5.73.18,10.3-1.7,14.87-5.13a34.65,34.65,0,0,0,3-7c3.22-3.38,4.83-3.92,9.51-4.24,3.51,0,7,.07,10.49.24l.88-1.87a11.55,11.55,0,0,1,3.12-4.13c5.18-.63,11.32-1.35,16.09,1a42.34,42.34,0,0,1,3.91,4l2.38.94c6.77,2.74,11.83,8.69,15.38,14.92,1.48,2.54,3.12,4.92,4.81,7.33l1.69,2.42a39.46,39.46,0,0,0,3.76,4.74,39.93,39.93,0,0,1,5.17,9.9l.79,2a40.21,40.21,0,0,1,3,14.72l.08,3a174.34,174.34,0,0,1-.85,19c-.37,5-.3,10-.23,15,8.31-2.63,13.5-10.94,18-18q1.71-2.13,3.44-4.25a44.78,44.78,0,0,0,5.88-9.5,65.4,65.4,0,0,1,7.81-12.25l1.31-1.71a26.5,26.5,0,0,1,6.56-6.29c.21-1,.42-1.94.63-2.94,1.37-3.06,1.37-3.06,3.11-3.87,1.54-.44,3.08-.86,4.63-1.27a33.37,33.37,0,0,0,8.26-4.61c3.11-2,5.18-3.26,8.81-4.12a44.87,44.87,0,0,1,23.56,13.81l1.57,3.63c1.47,3,2.52,3.41,5.73,4.68,2,.62,4,1.2,6,1.78,6,1.78,9.56,4.42,13.71,8.91l2,1.86c3.74,4,5.7,9.19,8,14.14l1,2.11c2.12,5.05,2.8,10.25,3.55,15.67.4,2.78.92,5.48,1.53,8.22a102.14,102.14,0,0,1,1.69,15.12,39.85,39.85,0,0,0,1.24,6.88c.08,2.33.09,4.67,0,7-1,1-1,1-3.81,1.19a13.74,13.74,0,0,1-7.19-2.19h-2c0,.79,0,1.57,0,2.38.08,8.94.08,8.94-.66,13.43-.46,3.88.52,6.47,1.62,10.19.56,6.9.56,6.9-1,10-4.33-.5-6.78-3.25-10-6l-2-.81c-4.42-2.61-6.15-8.6-8-13.19a43.29,43.29,0,0,1-.87-4.75c-1.34-8.57-6.31-17.38-11.37-24.33-2.06-3.42-2.18-5.35-2-9.29,0-1.06.07-2.12.1-3.21l.14-2.42c-13.15,2.09-21.93,10.34-30,20.59a67.58,67.58,0,0,0-6.83,11.29c-4.27,9-11.13,16.34-18.25,23.15a26.72,26.72,0,0,0-4.88,8l-3,1c-.32,4.29-.66,8.58-1,13l-4.24,1.38c-3.06,1.32-4.44,2.06-6.07,5a38.45,38.45,0,0,0-1.64,5.27c-1.41,3.16-3,3.82-6,5.34a26.62,26.62,0,0,1-5.56.3l-3.16,0c-2.18,0-4.37,0-6.55-.06-5.6-.15-5.6-.15-10.48,2.11-1.16,1.48-2.21,3.05-3.25,4.62-3.34.07-5.14-.35-7.81-2.37a17,17,0,0,0-6.62-2.94c-4.7-1.47-6.67-3.66-9.57-7.69l-2.5-2.44c-8.69-8.91-11.9-20.08-14-32.14-1.46-7.91-1.46-7.91-4.5-15.27-1.4-3.12-1.53-6.34-1.84-9.71a60.8,60.8,0,0,0-4.19-17.07,43.39,43.39,0,0,1-1.94-6.31c-1.74-9.2-1.74-9.2-6-17.06-6.76-.36-6.76-.36-13,2l-.93,2-1.07,2-2.74.56c-5.29,2.34-6.87,7.39-9.26,12.44l-2.84-.62c-3.24-.76-3.24-.76-5.59,1.5-.88,1-1.73,2.06-2.57,3.12l-1.72,2.1a71.54,71.54,0,0,0-7.52,10.84c-1.76,3.06-1.76,3.06-4.76,5.06l-1.43,3.06-1.57,2.94a25.41,25.41,0,0,1-4,1,31,31,0,0,0-2,4c-.89,1.66-1.8,3.31-2.71,5l-1.58,2.87-3.27,5.93a152.13,152.13,0,0,0-7.44,15.24c-1,1.93-1.94,3.84-2.93,5.75a136.08,136.08,0,0,0-7.07,17.25c-.53,1.4-1.07,2.79-1.62,4.19a58.36,58.36,0,0,0-2.38,8,27,27,0,0,1-4,8.81,121.83,121.83,0,0,0-4.21,11.76,39.8,39.8,0,0,1-2.29,5.43c-2.11,4.63-2.7,9.72-3.55,14.7-1.07,3.54-2,4.11-4.95,6.11-.22,2-.45,3.92-.61,5.88-.83,4.57-3.67,7.71-7.18,10.6a30.84,30.84,0,0,1-12.83,5c-5.06,1.13-10.67,2.83-14.38,6.53-5-.19-8.13-1.5-12.23-4.1-2-1.15-2-1.15-5.51-1.34-3.26-.56-3.26-.56-5-2.68a53.41,53.41,0,0,1-2.5-6.57c-1.44-3.65-1.44-3.65-5.19-4.43l-3.57-.88a30.9,30.9,0,0,1-4-5c-2.31-2.7-3.47-3.85-6.93-4.81-4.95-1.92-6.91-5.84-9.18-10.45-1.48-4.58-1.29-9.27-1.44-14.05-.47-3.89-1.65-6.24-3.45-9.69a36.19,36.19,0,0,1-.62-5.75,16.21,16.21,0,0,0-1.38-7.25c-.17-1.56-.32-3.12-.43-4.69a55.15,55.15,0,0,0-2.57-12.31A29.8,29.8,0,0,1,263,249l0-2.54v-2.73l0-2.85c0-2,0-4,0-6,0-3,0-6-.07-9-.05-9.31,0-18,2.64-26.95,1.3-5.07,1.83-11.06-.34-15.92-1.38-3.8-1.16-7.28-1.05-11.28.17-6.28.17-6.28-.94-12.44-8.67,0-13.89,2.21-21,7-1.24.66-2.49,1.31-3.74,1.94a20.56,20.56,0,0,0-6.07,5.37,31.76,31.76,0,0,1-7.81,6.94c-11.26,7.55-21,17.73-29.81,28a50.08,50.08,0,0,1-3.81,4,32,32,0,0,0-4.76,6.81l-2,2.94a24.39,24.39,0,0,0-3.43,6.19c-1.57,2.87-1.57,2.87-4.13,4.68-2.68,2-2.68,2-3,5l0,3.16a35.73,35.73,0,0,1-3.06,13.81,27.76,27.76,0,0,0-2.44,15.25l1,1c.44,6,.41,11.44-2,17l-6-3c-.05,1.61-.09,3.21-.12,4.81l-.07,2.71c0,2.74,0,2.74,2.19,5.48v3l-1.83,1.53c-3.32,3.79-3.79,8.12-4.79,13-.4,1.89-.81,3.77-1.23,5.66l-.52,2.52a15.41,15.41,0,0,1-1.66,4.36,15.91,15.91,0,0,0-1.56,6.22l-.24,2.39-.23,2.48c-.15,1.62-.31,3.25-.47,4.88l-.2,2.18a8.57,8.57,0,0,1-1.27,3.81c-.27,2.72-.44,5.45-.62,8.18a14.59,14.59,0,0,1-1.43,5.38c-1.07,2.76-1,4.35-.57,7.25l.34,2.4.28,1.79-4,2,1.07,2.5c1.78,6.64-.25,12.27-2.27,18.6a87.38,87.38,0,0,0-1.92,9.9c-1.47,8.84-4.53,17.07-7.53,25.49a240.15,240.15,0,0,0-9.54,35.2,72.06,72.06,0,0,1-3,9.26c-1.26,3.35-2.29,6.76-3.34,10.18-5.94,19-12.16,37.88-19.26,56.48q-3.37,8.87-6.42,17.83c-3.64,10.61-7.81,21-12,31.44-2.74,6.87-5.45,13.75-8.08,20.67-.24.64-.49,1.27-.74,1.93a112,112,0,0,0-3.91,13,27.14,27.14,0,0,1-9.07,14.5L55.22,646q-1.74,1.51-3.52,3a13.4,13.4,0,0,0-3,3c-2.09,1.79-3.3,1.69-6,1.6l-2.31,0a9.8,9.8,0,0,1-4.23-1c-2.27-.46-2.27-.46-4.43,1.71l-5.06,5.19c-2.54,1.9-2.54,1.9-5.23,1.81-2.31-.91-2.31-.91-4.31-2.91v-4a17.32,17.32,0,0,1,3.94-2.5c3.23-1.59,3.23-1.59,4.82-4.65l.24-1.85-2.19,1.13c-7.74,3.79-7.74,3.79-12,4.12A29.4,29.4,0,0,1,1.12,642.3c-2.42-6.37-.18-13.75,2-20A41.63,41.63,0,0,1,8,616c1.32-1.63,1.32-1.63.94-3.66a29.67,29.67,0,0,0-3.4-5.84c-3.61-6.42-3.51-13-2.44-20.19A67.27,67.27,0,0,1,7.66,577c2.06-3.85,2.75-7.45,3.46-11.74h3v6c3.15-1,4-2,5.72-4.89.61-1.26,1.2-2.52,1.78-3.8l2.11-4.39,1.15-2.41c1.3-2.61,2.66-5.17,4.05-7.73a305.07,305.07,0,0,0,22.19-50.83c1.68-5.14,3.69-10.07,5.8-15,1.86-4.48,3.41-9,4.89-13.66.33-1,.66-2.06,1-3.12,3.75-12.06,6.73-24.32,9.72-36.59.39-1.64.79-3.27,1.19-4.91l.59-2.42c1.57-6.38,3.29-12.71,5.11-19,3.1-10.85,5.23-21.89,4.69-33.2C78.53,379,73.18,388.85,68.27,399q-1.24,2.55-2.5,5.1-2.2,4.5-4.39,9L60,415.88a132.91,132.91,0,0,0-7,17.86,46.19,46.19,0,0,1-2.34,6c-3.31,7.88-5.43,16.14-7.43,24.44-1.62,6.71-3.66,13.19-5.91,19.72-1,2.87-1.87,5.74-2.72,8.65-1,3.46-2.17,6.82-3.44,10.19a147.09,147.09,0,0,0-4.33,14.1c-.77,2.86-1.68,5.66-2.67,8.46h-1c-.12-6.75-.12-6.75,1-9,0-1.8,0-3.6-.06-5.4a101.91,101.91,0,0,1,2.62-25.46c.46-2.23.87-4.47,1.25-6.71,3.63-20.46,10.69-40.09,18.19-59.43.4-1,.8-2.07,1.2-3.13,5.81-15.1,12.22-29.16,20.8-42.87q1.16-1.87,2.3-3.77c2.36-3.88,4.74-7.74,7.2-11.55l1.32-2.05L80,354.28a68.41,68.41,0,0,0,3.3-7.11c1.3-3,2.75-6,4.18-8.93,6.55-13.93,12.58-29.26,11.62-44.94-8.87,8.38-17.47,18.25-22.56,29.44-1.44,2.56-1.44,2.56-3.84,3.36-3.53,1.63-4,3.43-5.53,6.95-1.73,3.75-3.1,6.68-6.25,9.38-2.57,2.28-3.31,4-4.13,7.31-1.26,5-3.43,9-6.06,13.37L49.61,365a34.87,34.87,0,0,1-6.23,7.84c-2.75,2.95-2.85,4.34-2.88,8.3a27.6,27.6,0,0,1-3.38,13.12h-2c-.09.82-.19,1.64-.29,2.49-.15,1.07-.3,2.15-.45,3.26s-.28,2.14-.43,3.24c-1,3.46-2,4.8-4.83,7l-3,1c-.05,1.4-.09,2.79-.12,4.19,0,.78-.05,1.55-.07,2.35a7.4,7.4,0,0,0,1.18,4.72c1.41,3.82,1.34,7.34,1.33,11.37l0,2.31c0,5.57,0,5.57-1.88,8.09l-1.49,1c-3.82-1.5-5.75-3.59-8-7-4.05-19.08,1.91-40.9,8-59,.38-1.46.76-2.91,1.13-4.37,2.58-8.77,7.35-16.79,11.56-24.85a26.83,26.83,0,0,0,2.31-6.9c.75-3.23,1.61-5.48,4-7.88h2c.66,6-1.64,10.28-4.18,15.56-.83,1.78-1.66,3.57-2.48,5.35l-1.21,2.62c-4.37,8.93-4.37,8.93-6.13,18.47a121.53,121.53,0,0,0,8.19-14.5A207.39,207.39,0,0,1,52.8,341.37c1.32-2.06,2.62-4.12,3.92-6.19a388.8,388.8,0,0,1,29.09-40.07c4.37-5.29,8.51-10.68,12.44-16.31l1.36-1.92c3.9-5.7,6.66-11.62,7.2-18.58.11-1.33.21-2.67.31-4-5.74,4.53-9.79,9.41-14,15.38a140.75,140.75,0,0,1-10.46,13.51C78.37,288,75,293.32,71.56,298.74l-3.81,5.93-5.27,8.22c-2.59,4-5,7.45-8.73,10.47l-2.09,1.73-1.54,1.21c-1.24-2.91-1-4.06.09-7.11.56-1.22,1.14-2.43,1.73-3.64l1-2c5.26-10.66,11.89-20.52,18.73-30.21l1.28-1.81c3-4.12,3-4.12,5.22-5.25-.54,4.2-1.92,6.68-4.43,10.06a50.19,50.19,0,0,0-5.57,8.94h2c1.63-1.9,3.14-3.8,4.63-5.81l1.36-1.79c3.38-4.49,6.67-9,10-13.59,2.27-3.1,4.59-6.15,6.93-9.18l1.26-1.64q3.27-4.25,6.62-8.46l1.36-1.73,3.76-4.73c4-5.71,5.5-11.16,6.4-17.93a48,48,0,0,1,2.66-7.93,77.91,77.91,0,0,0,4.13-14.27C124,186.78,131.25,165,141.12,145.3l1.34-2.67A345.06,345.06,0,0,1,172.9,92c1.25-1.72,2.47-3.46,3.69-5.21A254.76,254.76,0,0,1,193.67,65c2.05-2.36,4.07-4.74,6.09-7.12s4-4.65,6-7c1.27-1.48,2.53-3,3.79-4.47l2.14-2.49,1.81-2.15c1.62-1.48,1.62-1.48,4.62-1.48l1,5,2.13-2.12,1.37-1.37q1.57-1.58,3.1-3.18c1.43-1.48,2.92-2.91,4.4-4.33h2a18.39,18.39,0,0,1-3.62,9.06,181.93,181.93,0,0,0-13.88,24.07,91.71,91.71,0,0,1-8.79,14.36c-3.76,5.54-7.36,11.89-8.71,18.51h3l.83-2.21A44.36,44.36,0,0,1,205,90.68l1.86-2.87,1.06-1.64c1.41-2.19,2.78-4.39,4.16-6.6L213.66,77q1.56-2.51,3.11-5a96.42,96.42,0,0,1,9.35-12.73c1,3,1,3-.08,5.39l-1.73,2.86-1.95,3.24c-1.92,3-3.93,6-6,9C210.65,88.24,204.85,97,202.12,107a19.13,19.13,0,0,1-4,7.34c-1.31,3.34-2.46,6.71-3.62,10.1-1.38,2.9-1.38,2.9-3.54,4.3l-1.84.6-1-1a39.8,39.8,0,0,1,.38-4.37l.27-2.4a22,22,0,0,1,1.35-5.23h-3l-.87,2.31a22.91,22.91,0,0,1-3.13,5.69c-.39,2.33-.73,4.66-1,7l5,1c.65,5.92-.91,9.42-3.8,14.57a24.2,24.2,0,0,0-2.2,7.43c4.23-1.51,5.55-4.05,7.69-7.87l1-1.83c3-5.39,5.4-11,7.85-16.61,2.7-6.21,5.34-11.57,9.83-16.71a41,41,0,0,0,4.48-7.23c7.64-14.5,18.5-27.41,28.9-40,2.36-2.93,4.61-5.92,6.85-9A174.76,174.76,0,0,1,259.12,41.3l1.44-1.59c6.92-7.62,13.76-15,22-21.25A63,63,0,0,0,296.24,4.4C300.46-.3,306.79-1.07,312.56,1.3Z"/><path class="cls-2" d="M145.12,280.3h3a157.56,157.56,0,0,1-3.87,24.88l-.78,3.56q-1.91,8.7-3.95,17.37c-1.18,5.11-2.1,10.19-2.83,15.38a242.06,242.06,0,0,1-9,39.07,34.58,34.58,0,0,0-1.58,12.74l3-5,3,1a16.7,16.7,0,0,1-3,8,16.75,16.75,0,0,0,0,5l1,1c.63,5.37-.91,8-3.93,12.31-5.12,7.78-5.78,13.71-4.07,22.69h-4c0,1.67,0,3.34,0,5l1,1c1.1,8.46-1,14.62-5,22a25.65,25.65,0,0,1-6-2l-.74,3.56c-3.32,14.7-8,28.62-13.19,42.75-.76,2.09-1.53,4.18-2.29,6.26q-2.84,7.78-5.71,15.55l-3,8.07c-13.1,35.73-13.1,35.73-21.1,47.81l-3,1a90,90,0,0,1,2-12l-.77,1.55c-1.17,2.3-2.35,4.59-3.54,6.89l-1.22,2.43-1.2,2.32-1.1,2.14c-1.17,1.67-1.17,1.67-4.17,2.67-1-12.3,4.85-24.8,8.94-36.19.48-1.33.95-2.66,1.43-4q3.88-10.9,8-21.73a469.18,469.18,0,0,0,15.81-48c1.5-5.64,3.14-11.23,4.76-16.84,5.56-19.4,11.08-38.8,15.75-58.44,4-16.73,4-16.73,6-24.25l.54-2.11a30.52,30.52,0,0,1,5.77-11.45l3-1a55.88,55.88,0,0,0-4-7,34.65,34.65,0,0,1,0-5,11.72,11.72,0,0,1,4-1,20.45,20.45,0,0,1,4,3,38.2,38.2,0,0,0,0-8l-2-1.44c-2-1.56-2-1.56-2.4-3.34-.24-5.74,1.35-10.24,3.46-15.5a28.21,28.21,0,0,0,1.51-7.66c.28-3.5.64-5.66,3.43-8.06a20.82,20.82,0,0,1,5-1c-.37-3.29-.37-3.29-2-6-.85-6,1.77-10,4.69-15l1.32-2.37A60.75,60.75,0,0,1,145.12,280.3Z"/><path class="cls-3" d="M312.56,1.3C322.45,9,322.45,9,324.25,15.11c-.13,3.19-.13,3.19-2.13,6.19a43.43,43.43,0,0,1-6.68.44c-6.23.32-9.23,1.14-14.32,4.56q-2.47,1-5,1.88a31.34,31.34,0,0,0-13.93,10.56,53.72,53.72,0,0,1-7.86,7.51,79.67,79.67,0,0,0-8.74,10.21c-2.47,1.84-2.47,1.84-10.47.84l-15,22-1-2c-4,.21-5.59.57-8.41,3.55l-2.21,3.2-2.23,3.17-2.15,3.08-2.27,2.77c-1.93,2-1.93,2-1.73,4.23h-2l-.62,2.44a46.6,46.6,0,0,1-5.73,10.06c-2.33,3.54-4.27,7.25-6.26,11a67,67,0,0,1-3.63,5.89,33,33,0,0,0-3.76,7.62h-1c.39-10.16,5.66-17.39,12-25,.95-1.67,1.86-3.36,2.76-5.06,7.72-14.56,18.56-27.52,29-40.18,2.36-2.93,4.61-5.92,6.85-9A174.76,174.76,0,0,1,259.12,41.3l1.44-1.59c6.92-7.62,13.76-15,22-21.25A63,63,0,0,0,296.24,4.4C300.46-.3,306.79-1.07,312.56,1.3Z"/><path class="cls-4" d="M626.45,106.39l1.93,1.29,2,1.27c3.25,2.44,5.07,4.42,6.42,8.29l.73,2c.63,2,1.16,4,1.64,6-4-.57-6.14-2.61-9.18-5.12-4.66-3.54-4.66-3.54-10.25-4.25-6.43,1.43-13.89,4.7-18.57,9.37a23.85,23.85,0,0,0-1,4l3.26-1.37,1.94-.83a21.29,21.29,0,0,0,3.87-2,13.12,13.12,0,0,1,7.93-.81,27.19,27.19,0,0,1,6,5v3l-3.32-.21-4.36-.16-2.19-.16a21.07,21.07,0,0,0-6.13.53,30.43,30.43,0,0,0-5,6c-3,2.13-6,4-9.16,5.88-6.06,4.53-8.54,11.5-11.52,18.25l-1.22,2.7a57.34,57.34,0,0,0-4.1,11.17l5,1c0,4.28-.7,5.56-3,9-7.66-6-7.66-6-9-11a51.7,51.7,0,0,0-6.87,8.31c-2.9,4-5.87,7.93-9.13,11.69l-5-1c-.43-5.7.39-8.34,3.82-12.87l2.49-3.41,1.33-1.82c2.4-3.35,4.63-6.81,6.86-10.27l1.41-2.17c3-4.74,6-9.55,8.85-14.4,3.49-5.89,7.22-11.52,11.24-17.06l1.93-2.77c6.55-9.29,12.67-15.79,22.64-21.29l2.18-1.23C616.46,104.09,620.52,103.62,626.45,106.39Z"/><path class="cls-5" d="M501.88,66.86c7.76.09,7.76.09,10.81,2.82l2.43,2.62,2.38.94c6.77,2.74,11.83,8.69,15.38,14.92,1.48,2.54,3.12,4.92,4.81,7.33l1.69,2.42a39.46,39.46,0,0,0,3.76,4.74,39.93,39.93,0,0,1,5.17,9.9l.79,2a40.21,40.21,0,0,1,3,14.72l.08,3a174.34,174.34,0,0,1-.85,19c-.37,5-.3,10-.23,15,8.31-2.63,13.5-10.94,18-18q1.71-2.13,3.44-4.25a44.78,44.78,0,0,0,5.88-9.5,65.4,65.4,0,0,1,7.81-12.25l1.31-1.71a26.5,26.5,0,0,1,6.56-6.29l.63-2.94c1.37-3.06,1.37-3.06,3.11-3.87,1.54-.44,3.08-.86,4.63-1.27a33.37,33.37,0,0,0,8.26-4.61c3.19-2.08,5.17-3.27,8.94-4.06,4.92,1.08,9.07,3.29,13.43,5.75v7h2l1,4h2c.34,2.64.67,5.28,1,8-2.45-2-3.16-3.42-4.37-6.44-2.57-5.63-6.91-8.39-12.63-10.56-10.79.69-21.68,7.47-28.89,15.34a189.81,189.81,0,0,0-10.83,15.68c-1.68,2.62-3.43,5.19-5.18,7.78-4.15,6.13-8,12.33-11.62,18.81a22.57,22.57,0,0,1-4.48,5.39l-1-2-2.62,1.06c-3.62,1-5.76.8-9.38-.06a20.7,20.7,0,0,1-1-8l-2,2c0-3.46-.09-6.91-.12-10.37l0-3,0-2.85,0-2.63c.22-2.16.22-2.16,2.22-4.16a21,21,0,0,0-1-9c-.28-1.87-.55-3.75-.81-5.62A45.31,45.31,0,0,0,541,110.14a25.77,25.77,0,0,1-1.91-4.84l-2.56-2.56-2.44-2.44v-2l-3-1a27.25,27.25,0,0,1-1.68-5.06l-.76-2.79-.56-2.15h-3l-.68-2.37c-1.71-3.41-2.75-3.41-6.32-4.63q-2.1-1.23-4.18-2.5c-4.7-2.61-9.35-4.65-14.82-4.5a31,31,0,0,0-4.87,3.83c-4,2.2-8.59,1.29-13,1-3.15-.13-3.15-.13-4.85,2l-1.26,2.22c-5.79,7.36-10.12,10.11-19.47,11.57a19.24,19.24,0,0,0-5.53,1.43l-.91,2.76c-3.29,9.79-17.07,19.82-26.09,24.43-3.19,1.57-3.19,1.57-4.43,4.69-1.93,3.86-4.26,5.32-7.82,7.63-2.05,1.75-2.37,2.87-2.75,5.49l6,1a16.7,16.7,0,0,1-3,8l-2-1,3-5-7-1a10.56,10.56,0,0,1-1-4,21.59,21.59,0,0,1,3.5-4.25l2.27-2.4,2.23-2.35c1.07-1.26,2.14-2.54,3.19-3.81A161.82,161.82,0,0,1,429,112.13c2.78-2.52,5.43-5.17,8.08-7.83,4.45-3.72,4.45-3.72,7-5l.38-3.37c.62-3.63.62-3.63,2.12-5.57,2.65-1.12,3.82-1.09,6.63-.93,5.73.18,10.3-1.7,14.87-5.13a34.65,34.65,0,0,0,3-7c3.22-3.38,4.83-3.92,9.51-4.24,3.51,0,7,.07,10.49.24l.88-1.87C494.48,66.73,496.83,67,501.88,66.86Z"/><path class="cls-6" d="M264.12,155.3c3.72,3.54,4.63,7,5,12,0,1.83,0,3.67-.06,5.5a30,30,0,0,0,2.06,11.5,35.59,35.59,0,0,1,0,15.84c-2,10.21-2.4,20.15-2.3,30.54q0,4.06,0,8.14c0,1.75,0,3.51,0,5.27v2.4a59.31,59.31,0,0,0,1.82,13.84,84.33,84.33,0,0,1,1.48,8.35c.64,4.21,1.28,8.42,2,12.62l.44,2.56a13.42,13.42,0,0,0,1.56,4.71c1.38,3.75,1.68,7.46,2.07,11.42.34,5.32.34,5.32,1.93,10.31l3,2h-2c1.93,2.23,1.93,2.23,5,3,1.71,1.63,3.38,3.29,5,5l2,2a42.44,42.44,0,0,1,1,5,8.12,8.12,0,0,1-5.87-2.94c-2-2.28-2-2.28-5.06-2.87-4.95-1.92-6.91-5.84-9.18-10.45-1.48-4.58-1.29-9.27-1.44-14.05-.47-3.89-1.65-6.24-3.45-9.69a36.19,36.19,0,0,1-.62-5.75,16.21,16.21,0,0,0-1.38-7.25c-.17-1.56-.32-3.12-.43-4.69a55.15,55.15,0,0,0-2.57-12.31A29.8,29.8,0,0,1,263,249l0-2.54v-2.73l0-2.85c0-2,0-4,0-6,0-3,0-6-.07-9-.05-9.31,0-18,2.64-26.95,1.3-5.07,1.83-11.06-.34-15.92-1.38-3.8-1.16-7.28-1.05-11.28.17-6.28.17-6.28-.94-12.44-8.67,0-13.89,2.21-21,7-1.24.66-2.49,1.31-3.74,1.94a20.56,20.56,0,0,0-6.07,5.37,31.76,31.76,0,0,1-7.81,6.94c-11.26,7.55-21,17.73-29.81,28a50.08,50.08,0,0,1-3.81,4,32,32,0,0,0-4.76,6.81l-2,2.94a24.39,24.39,0,0,0-3.43,6.19c-1.57,2.87-1.57,2.87-4.13,4.68-2.68,2-2.68,2-3,5l0,3.16a35.73,35.73,0,0,1-3.06,13.81,27.76,27.76,0,0,0-2.44,15.25l1,1c.15,2.67,0,5.33,0,8h-2l-.4-2.12-.53-2.75-.53-2.75a9.5,9.5,0,0,0-1.54-4.38l-2,2v-10h2v-7l3-1-.14-1.87c-.28-6.73,1-11.23,4.14-17.13l1.76-3.56,1.24-2.44h2l.69-1.94c2.5-5.82,5.25-12,10.31-16.06h2v-3a20.48,20.48,0,0,1,3.19-2.87,151.29,151.29,0,0,0,11.13-10.5c8.34-8.45,17.5-15.57,27-22.62,2.05-1.55,4-3.12,5.91-4.82a39.73,39.73,0,0,1,8.82-5.2,9.78,9.78,0,0,0,3.76-2.57C253.39,153.82,259.07,154.5,264.12,155.3Z"/><path class="cls-7" d="M467.12,155.3l1,2a20.54,20.54,0,0,0,4,1v1l-2.08.4-2.73.54-2.7.53a26.19,26.19,0,0,0-5.49,1.53l-.81,1.94-1.19,2.06-2.74.56c-5.29,2.34-6.87,7.39-9.26,12.44l-2.84-.62c-3.24-.76-3.24-.76-5.59,1.5-.88,1-1.73,2.06-2.57,3.12l-1.72,2.1a71.54,71.54,0,0,0-7.52,10.84c-1.76,3.06-1.76,3.06-4.76,5.06l-1.43,3.06-1.57,2.94a25.41,25.41,0,0,1-4,1,31,31,0,0,0-2,4c-.89,1.66-1.8,3.31-2.71,5l-1.58,2.87-3.27,5.93a152.13,152.13,0,0,0-7.44,15.24c-1,1.93-1.94,3.84-2.93,5.75a136.08,136.08,0,0,0-7.07,17.25c-.53,1.4-1.07,2.8-1.62,4.19a58.36,58.36,0,0,0-2.38,8,27,27,0,0,1-4,8.81,121.83,121.83,0,0,0-4.21,11.76,39.8,39.8,0,0,1-2.29,5.43c-2.11,4.63-2.7,9.72-3.55,14.7-1.07,3.54-2,4.11-4.95,6.11-.22,2-.45,3.91-.6,5.88-.94,5.08-4.49,8.37-8.33,11.56-3.34,1.7-5.37,1.91-9.07,1.56,3-2,3-2,5.5-2.69,3-1.57,3.79-3.18,5-6.3a35.06,35.06,0,0,0,1-6.2c.49-3.7.85-5.26,3.5-7.81h2l.38-2.94a72,72,0,0,1,5.62-20.06c.79-2,1.55-4.08,2.31-6.13.86-2.31,1.77-4.59,2.69-6.87h2l.44-3.81a33.1,33.1,0,0,1,1.56-7.19h2l-1-3c1.37-6.61,4.67-12.8,7.63-18.81q1.22-2.48,2.41-5l1.07-2.17a31.53,31.53,0,0,0,1.89-6.06h2l.25-2.51c.93-4.28,2.69-7.57,4.82-11.36l1.14-2.09c.92-1.68,1.86-3.36,2.79-5h2l.32-2.19a20.87,20.87,0,0,1,3.68-7.81h2l2-5h3l1-5,4-1,1-4h2l.38-1.81c.62-2.19.62-2.19,2.62-5.19h2l.81-1.78c3.42-6.34,9.84-11.05,16.19-14.22h2l.82-2.31c1.2-2.72,1.81-4,4.18-5.69,2.32-.72,4.66-1.38,7-2,1.35-.65,2.68-1.31,4-2C464.45,155.93,465.78,155.59,467.12,155.3Z"/><path class="cls-8" d="M44.12,335.3h2c.66,6-1.64,10.28-4.18,15.56-.83,1.78-1.66,3.57-2.48,5.35l-1.21,2.62c-4.37,8.93-4.37,8.93-6.13,18.47l1-1.53,1.33-2,1.3-2,1.38-1.53h3v2l5-2-1.93,1.75c-2.65,4.18-2.54,7.43-2.78,12.29a24.9,24.9,0,0,1-3.29,10h-2l-.29,2.49-.45,3.26L34,403.29c-1,3.46-2,4.8-4.83,7l-3,1c-.05,1.4-.09,2.79-.12,4.19l-.07,2.35a7.4,7.4,0,0,0,1.18,4.72c1.41,3.82,1.34,7.34,1.33,11.37l0,2.31c0,5.57,0,5.57-1.88,8.09l-1.49,1c-3.82-1.5-5.75-3.59-8-7-4.05-19.08,1.91-40.9,8-59,.38-1.46.76-2.91,1.13-4.37,2.58-8.77,7.35-16.79,11.56-24.85a26.83,26.83,0,0,0,2.31-6.9C40.87,340,41.73,337.7,44.12,335.3Z"/><path class="cls-9" d="M317.4,57.55c3.32,3.65,4.58,7.91,5.87,12.59,1,2.44,2.05,3.48,4,5.22,4.27,4.46,3.61,10.41,3.67,16.2,0,3.58,0,3.58,1.21,6,1.28,3.52,1.22,6.47,1.19,10.22v2.13q0,3.35-.06,6.69l0,4.56q0,5.56-.1,11.13h-1a235.64,235.64,0,0,1-.93-24.35c.06-2.76.06-2.76-1.07-5.65l-2,1c-2.74-5.54-4.23-9.89-3.81-16.12.15-3.45.22-5.24-1.66-8.17-1.25-1.33-2.54-2.63-3.85-3.9-2.38-2.57-2.76-5.48-3.68-8.81-3.39-2.83-6.62-3.75-11-4a50.62,50.62,0,0,0-14.06,4.13c-3.24,1.38-5.48,2-9,1.75-7.34.23-12.22,5.12-17.12,10.25-3.68,4.31-5.93,8.93-8.34,14-5.39,10.4-15.86,17.6-25.48,23.85L228.5,118c-1.7,1.62-3.09,1.92-5.38,2.31v-2a32.62,32.62,0,0,1,3.26-2.81,125.1,125.1,0,0,0,12.44-12.57,71,71,0,0,1,9.3-8.62,21.74,21.74,0,0,0,4.94-10.56c2.12-7.9,9.15-13.19,15.06-18.44l1.93-1.85c3.15-1.74,6.37-1.55,9.89-1.59,6.17-.2,10.16-.9,15.18-4.56C301.16,55.17,311.7,54.43,317.4,57.55Z"/><path class="cls-10" d="M244.12,160.3l1,2,2,1-2.16,1c-5.91,3-9.93,5.81-14.05,11a31.17,31.17,0,0,1-6.47,5.3c-11.26,7.5-21,17.7-29.75,27.91a50.08,50.08,0,0,1-3.81,4,32,32,0,0,0-4.76,6.81l-2,2.94a24.39,24.39,0,0,0-3.43,6.19c-1.57,2.87-1.57,2.87-4.13,4.68-2.68,2-2.68,2-3,5l0,3.16a35.73,35.73,0,0,1-3.06,13.81,27.76,27.76,0,0,0-2.44,15.25l1,1c.15,2.67,0,5.33,0,8h-2l-.4-2.12-.53-2.75-.53-2.75a9.5,9.5,0,0,0-1.54-4.38l-2,2v-10h2v-7l3-1-.14-1.87c-.28-6.73,1-11.23,4.14-17.13l1.76-3.56,1.24-2.44h2l.69-1.94c2.5-5.82,5.25-12,10.31-16.06h2v-3a20.48,20.48,0,0,1,3.19-2.87,151.29,151.29,0,0,0,11.13-10.5c8.33-8.45,17.49-15.56,27-22.62,2.11-1.59,4.12-3.21,6.1-4.95A21.82,21.82,0,0,1,244.12,160.3Z"/><path class="cls-11" d="M472.12,159.3c3,1,3,1,4,3l2,.88c2,1.12,2,1.12,2.57,2.81l.43,2.31,1.44,3.19a45.3,45.3,0,0,1,3.56,12.81l-1,2h2l.41,2.63.53,3.5.53,3.44.53,3.43.45,3.37.55,2.63,2,1-1,5,2,1,1,6,2,1a38.6,38.6,0,0,1,.63,5.56l.23,3.07.14,2.37h2l-.43,3.13c0,10.32,7.72,19.92,14.52,27l1.91,1.89,2,2c1.33.36,2.67.69,4,1,1.35.64,2.69,1.3,4,2v2l5,1v-3l6-1c-1.65,2.31-3.29,4.62-5,7-5.5-.62-5.5-.62-7.81-2.37a17,17,0,0,0-6.62-2.94c-4.7-1.47-6.67-3.66-9.57-7.69l-2.5-2.44c-8.69-8.91-11.9-20.08-14-32.14-1.46-7.91-1.46-7.91-4.5-15.27-1.4-3.12-1.53-6.34-1.84-9.71a60.8,60.8,0,0,0-4.19-17.07,43.39,43.39,0,0,1-1.94-6.31A81.85,81.85,0,0,0,472.12,159.3Z"/><path class="cls-12" d="M123.12,193.3h2c.14,3,.25,5.39-.89,8.2a69.27,69.27,0,0,0-3,10.86A157.5,157.5,0,0,1,116,230.79a60.48,60.48,0,0,0-1.84,7.51L113,241l-.88,2.31,1,2-2,1a38.69,38.69,0,0,0-2,12.94v3.06l-2,2v-10c-5.74,4.53-9.79,9.41-14,15.38a140.75,140.75,0,0,1-10.46,13.51C78.37,288,75,293.32,71.56,298.74l-3.81,5.93-5.27,8.22c-2.59,4-5,7.45-8.73,10.47l-2.09,1.73-1.54,1.21c-1.24-2.91-1-4.06.09-7.11.56-1.22,1.14-2.43,1.73-3.64l1-2c5.26-10.66,11.89-20.52,18.73-30.21l1.28-1.81c3-4.12,3-4.12,5.22-5.25-.54,4.2-1.92,6.68-4.43,10.06a50.19,50.19,0,0,0-5.57,8.94h2c1.63-1.9,3.14-3.8,4.63-5.81l1.36-1.79c3.38-4.49,6.67-9,10-13.59,2.27-3.1,4.59-6.15,6.93-9.18l1.26-1.64q3.27-4.25,6.62-8.46l1.36-1.73,3.76-4.73c4-5.71,5.5-11.16,6.4-17.93a46.54,46.54,0,0,1,2.62-7.81,95.8,95.8,0,0,0,4.79-16.27l1.26-5.52.55-2.43A40.5,40.5,0,0,1,123.12,193.3Z"/><path class="cls-13" d="M402.12,145.3c-.25,5.18-1.95,7.38-5.31,11a61.81,61.81,0,0,0-6.29,9.66,28.08,28.08,0,0,1-3,4.34c-2,2.82-2.61,5.76-3.47,9.07l-.95,1.92c-1.32.38-2.65.71-4,1a13.86,13.86,0,0,0-2.68,3.44,125.38,125.38,0,0,1-10.08,12.11c-2,2.2-3.94,4.44-5.86,6.7-8.68,9.84-8.68,9.84-14.81,10.63l-3.57.12,1-2-4-1,1-3,2.88.5a16.67,16.67,0,0,0,5.12.5l.76-1.69c2-3.63,3.95-6.58,7.6-8.63,3.08-1.95,4.84-4.07,7.08-6.93,2.59-3.27,5.19-6.48,8-9.56a19.24,19.24,0,0,0,4.8-11.21c1.11-7.58,5.45-11.73,10.76-17l2.13-2.12,1.87-1.88,2.63-2.69C397,145.45,397.46,145.3,402.12,145.3Z"/><path class="cls-14" d="M492.12,70.3c1,2,1,2,1,5l-1,3-2.95-.14-3.86-.11-3.83-.14c-3.38,0-3.38,0-5.12,2.18l-1.24,2.21c-5.79,7.36-10.12,10.11-19.47,11.57a19.24,19.24,0,0,0-5.53,1.43l-.91,2.76c-3.29,9.79-17.07,19.82-26.09,24.43-3.19,1.57-3.19,1.57-4.43,4.69-1.93,3.86-4.26,5.32-7.82,7.63-2.05,1.75-2.37,2.87-2.75,5.49l6,1a16.7,16.7,0,0,1-3,8l-2-1,3-5-7-1a10.56,10.56,0,0,1-1-4,21.59,21.59,0,0,1,3.5-4.25l2.27-2.4,2.23-2.35c1.07-1.26,2.14-2.54,3.19-3.81A161.82,161.82,0,0,1,429,112.13c2.78-2.52,5.43-5.17,8.08-7.83,4.45-3.72,4.45-3.72,7-5l.38-3.37c.62-3.63.62-3.63,2.12-5.57,2.65-1.12,3.82-1.09,6.63-.93,5.73.18,10.3-1.7,14.87-5.13a34.65,34.65,0,0,0,3-7c3.22-3.38,4.83-3.92,9.51-4.24,3.51,0,7,.07,10.49.24Z"/><path class="cls-15" d="M278.81,63.18l2.13,0,5.18.1v3l2,1a15.41,15.41,0,0,1-7.18.69c-8.1.66-13.9,6.8-19,12.75a73.59,73.59,0,0,0-6.36,11.71c-5.39,10.4-15.86,17.6-25.48,23.85L228.5,118c-1.7,1.62-3.09,1.92-5.38,2.31v-2a32.62,32.62,0,0,1,3.26-2.81,125.1,125.1,0,0,0,12.44-12.57,71.65,71.65,0,0,1,9.3-8.62,21.74,21.74,0,0,0,4.94-10.56C255.94,72.93,268,62.91,278.81,63.18Z"/><path class="cls-16" d="M259.12,41.3l3,1-1.87,2.19c-2.2,2.65-2.2,2.65-3.19,5.5-.94,2.31-.94,2.31-3.94,4.31a14.54,14.54,0,0,0-.83,4.09c-1,5.42-3.55,9.09-6.79,13.47l-1.56,2.19c-1.26,1.76-2.54,3.51-3.82,5.25l-1-2c-4,.21-5.59.57-8.41,3.55l-2.21,3.2-2.23,3.17-2.15,3.08-2.27,2.77c-1.93,2-1.93,2-1.73,4.23h-2l-.62,2.44a46.6,46.6,0,0,1-5.73,10.06c-2.33,3.54-4.27,7.25-6.26,11a67,67,0,0,1-3.63,5.89,33,33,0,0,0-3.76,7.62h-1c.39-10.16,5.66-17.39,12-25,.95-1.67,1.86-3.36,2.76-5.06,7.72-14.56,18.56-27.52,29-40.18,2.36-2.93,4.61-5.92,6.85-9A176.6,176.6,0,0,1,259.12,41.3Z"/><path class="cls-17" d="M634.12,171.3c2-.27,4-.6,6-1l1,2-3.43.63C624.34,176.35,614,189,607.12,200.3c-.64,1.28-1.27,2.57-1.87,3.88-4.27,9-11.13,16.34-18.25,23.15a26.72,26.72,0,0,0-4.88,8l-3,1c-.33,4.29-.65,8.58-1,13l-4.24,1.38c-3.13,1.34-4.48,2.16-6.24,5.11a77,77,0,0,0-2.52,7.51h-3l1-2h2l.38-3.25c1-5.8,1-5.8,2.62-7.75a52.88,52.88,0,0,1,8-2l.19-2.3.25-3,.25-3a18.89,18.89,0,0,1,1.31-5.7h2l.63-2.44c1.82-4.72,4.65-11.2,9.37-13.56q1.54-2.48,3-5c1.12-1.59,2.24-3.17,3.38-4.75a74,74,0,0,0,5.94-9.69c3.6-6.76,9.3-12.18,14.68-17.56l1,2,2.32-2.87a21.68,21.68,0,0,1,5.68-5.13l1-3C630.07,170.34,630.64,170.14,634.12,171.3Z"/><path class="cls-18" d="M467.12,155.3l1,2a20.54,20.54,0,0,0,4,1v1l-2.08.4-2.73.54-2.7.53a26.19,26.19,0,0,0-5.49,1.53l-.81,1.94-1.19,2.06-2.74.56c-5.29,2.34-6.87,7.39-9.26,12.44l-2.84-.62c-3.24-.76-3.24-.76-5.59,1.5-.88,1-1.73,2.06-2.57,3.12l-1.72,2.1a63.88,63.88,0,0,0-7.4,10.84c-2,3.34-3.14,4.13-6.88,5.06l-2-5,4-1,1-4h2l.38-1.81c.62-2.19.62-2.19,2.62-5.19h2l.81-1.78c3.42-6.34,9.84-11.05,16.19-14.22h2l.82-2.31c1.2-2.72,1.81-4,4.18-5.69,2.32-.72,4.66-1.38,7-2,1.35-.65,2.68-1.31,4-2C464.45,155.93,465.78,155.59,467.12,155.3Z"/><path class="cls-19" d="M617.12,136.3c.31,3.11.21,4.66-1.43,7.36l-2,2.39-2.21,2.65c-2.22,2.45-4.53,4.75-6.92,7a52.83,52.83,0,0,0-9.73,13.37c-1.71,2.19-1.71,2.19-4.41,3l-2.3.19c1-13.19,9.19-22.68,18.58-31.39C612.36,136.3,612.36,136.3,617.12,136.3Z"/><path class="cls-20" d="M333.12,134.3c2.26,3.62,2.3,6.72,2.38,10.93l.06,2q.07,3.19.13,6.37t.14,6.34c.05,1.93.08,3.85.12,5.77.18,3.59.66,7,1.17,10.58.06,1.57.07,3.14,0,4.71-.06,5.65.19,11.27.46,16.92l.15,3c.12,2.44.23,4.89.35,7.33l-1-4h-2l1-8h-2l1,3-3,1a150.28,150.28,0,0,1-1-21.1c0-7.71-.31-15.38-.76-23.07a60.86,60.86,0,0,1,.73-14.83h1Z"/><path class="cls-21" d="M77.12,276.3a9,9,0,0,1,1,4,34.52,34.52,0,0,1-3.81,5.5,46.29,46.29,0,0,0-6.19,9.5l5-1c-4.52,11.95-12.42,24.61-23,32-1.24-2.91-1-4.06.09-7.11.56-1.22,1.14-2.43,1.73-3.64l1-2C59.07,301,67.18,286.24,77.12,276.3Z"/><path class="cls-22" d="M472.12,159.3c3,1,3,1,4,3l2,.88c2,1.12,2,1.12,2.57,2.81l.43,2.31,1.44,3.19a45.3,45.3,0,0,1,3.56,12.81l-1,2h2l.41,2.63.53,3.5.53,3.44.53,3.43.45,3.37.55,2.63,2,1-1,5,2,1a31.58,31.58,0,0,1,0,6,22.32,22.32,0,0,1-3,3l-.58-1.83-.79-2.42-.77-2.39a13.42,13.42,0,0,0-1.9-4.18c-1.38-3.14-1.52-6.36-1.83-9.74a60.8,60.8,0,0,0-4.19-17.07,43.39,43.39,0,0,1-1.94-6.31A81.85,81.85,0,0,0,472.12,159.3Z"/><path class="cls-23" d="M417.12,197.3a10,10,0,0,1,1.94,6.63c-.94,2.37-.94,2.37-3.37,3.43l-2.57.94a24.83,24.83,0,0,0-2,4c-.89,1.66-1.8,3.31-2.71,5l-1.58,2.87-3.27,5.93a138.4,138.4,0,0,0-7.44,15.24l-1-2h-3l-1,5c-1-3.13-.93-4,0-7h2l.25-2.51c.93-4.28,2.69-7.57,4.82-11.36l1.14-2.09c.92-1.68,1.86-3.36,2.79-5h2l.32-2.19a20.87,20.87,0,0,1,3.68-7.81h2l2-5h3v-3Z"/><path class="cls-24" d="M156.12,117.3l4,1h-2v4c-.51,4-1.87,6.57-4,10-1,2.33-2,4.66-3,7q-1,2-2,4c-2.84,5.61-5.6,11.19-8,17h-3l-3,2c.51-6.23,3.3-11.35,6-16.87l1.49-3.07C146.78,133.81,151.31,125.5,156.12,117.3Z"/><path class="cls-25" d="M440.12,101.3l2,1v2l2,1q-3,2.85-6.06,5.69l-1.7,1.61c-8.95,8.33-8.95,8.33-14.48,10.64-2,1-2,1-3,3.81-2.09,3.87-4.38,5.41-8,7.76-2.05,1.75-2.37,2.87-2.75,5.49l6,1a16.7,16.7,0,0,1-3,8l-2-1,3-5-7-1a10.56,10.56,0,0,1-1-4,21.59,21.59,0,0,1,3.5-4.25l2.27-2.4,2.23-2.35c1.07-1.26,2.14-2.54,3.19-3.81A161.82,161.82,0,0,1,429,112.13c2.78-2.52,5.45-5.15,8.08-7.83Z"/><path class="cls-26" d="M548.12,122.3c2,1,2,1,3.11,3.73,2.51,9.2.74,19.63,0,29l-.24,3.29-.25,3.07-.22,2.78-.42,2.11-2,1a20.7,20.7,0,0,1-1-8l-2,2c0-3.46-.09-6.91-.12-10.37l0-3,0-2.85,0-2.63c.22-2.16.22-2.16,2.22-4.16a21,21,0,0,0-1-9,23.21,23.21,0,0,1,0-5Z"/><path class="cls-27" d="M226.12,59.3c1,3,1,3-.08,5.39l-1.73,2.86-1.95,3.24c-2.72,4.34-5.64,8.55-8.52,12.78a129.3,129.3,0,0,0-9.34,16.9,33.55,33.55,0,0,1-3.38,5.83l-2-4h-3c-.08-1.77-.13-3.54-.18-5.31l-.11-3c.35-3.18.95-3.66,3.29-5.7.95-1.53,1.84-3.1,2.69-4.69l1.33-2.45,1-1.86h3l-1.42,2.31a74.62,74.62,0,0,0-8.58,18.69h3l.83-2.21A44.36,44.36,0,0,1,205,90.68l1.86-2.87,1.06-1.64c1.41-2.19,2.78-4.39,4.16-6.6L213.66,77q1.56-2.51,3.11-5A96.42,96.42,0,0,1,226.12,59.3Z"/><path class="cls-28" d="M218.12,40.3l2,7-4,1-1-3-6.87,7.25-2,2.07-1.9,2-1.74,1.84a28.1,28.1,0,0,0-3.52,5.83l-5,5a31.54,31.54,0,0,0-4,8l-2.38.89c-3.29,1.4-3.88,2.72-5.49,5.86-2.75,4.94-5.64,7.84-10.13,11.25a43.8,43.8,0,0,1,6.44-11.5L179.9,82c4.31-5.9,9-11.46,13.77-17,2.05-2.36,4.07-4.74,6.09-7.12s4-4.65,6-7c1.27-1.48,2.53-3,3.79-4.47l2.14-2.49,1.81-2.15C215.12,40.3,215.12,40.3,218.12,40.3Z"/><path class="cls-29" d="M44.12,335.3h2c.66,6-1.64,10.28-4.18,15.56-.83,1.78-1.66,3.57-2.48,5.35l-1.21,2.62c-4.37,8.93-4.37,8.93-6.13,18.47l3-2a12.89,12.89,0,0,1-2,4,21.74,21.74,0,0,1-5,1l-3,1c1.88-10.33,6.15-18.83,11-28a35.4,35.4,0,0,0,4-10.12C40.87,340,41.73,337.7,44.12,335.3Z"/><path class="cls-30" d="M619.06,97.93c5.26,0,9.59,2.85,14.06,5.37v7h2l1,4h2l1,8c-2.45-2-3.16-3.42-4.37-6.44-2.57-5.63-6.91-8.39-12.63-10.56-5.92.11-10.76,2.45-16,5l-2-2,3.88-2.56,2.18-1.44,1.94-1,2,1,.44-2.44C615.35,98.28,615.35,98.4,619.06,97.93Z"/><path class="cls-31" d="M170.12,236.3c2.64,4.63,2.64,8.78,2,14-.91,2.83-2,5.55-3.1,8.31-1.35,4.07-1.24,7.44-.9,11.69l1,1c.15,2.67,0,5.33,0,8h-2l-.4-2.12-.53-2.75-.53-2.75a9.5,9.5,0,0,0-1.54-4.38l-2,2v-10h2v-7l3-1-.1-2C166.75,240.52,166.75,240.52,170.12,236.3Z"/><path class="cls-32" d="M33.12,467.3l2,1-1,3h-2c-.36,1.46-.71,2.92-1.06,4.38l-.6,2.46c-.56,2.2-.56,2.2.66,4.16l-.93,2.19c-1.29,3.42-1.13,6.18-1.07,9.81-.28,1.68-.59,3.35-1,5h2a102.55,102.55,0,0,1-6,26h-1c-.12-6.75-.12-6.75,1-9,0-1.8,0-3.6-.06-5.41-.26-9.59,1-18.25,3.06-27.59.26-1.35.52-2.69.77-4l.73-3.83.66-3.43C30.12,469.3,30.12,469.3,33.12,467.3Z"/><path class="cls-33" d="M392.12,239.3h3c-.54,4.22-2.13,7.65-3.89,11.47-1.56,3.57-2.86,7.22-4.16,10.89-.84,2.34-1.72,4.64-2.63,6.95a43.86,43.86,0,0,0-2.32,9.69h-1l-.37-3.37c-.27-3.66-.27-3.66-2.63-5.63,2.54-8.88,6.78-16.82,11-25h2Z"/><path class="cls-34" d="M501.81,66.93c7.86,0,7.86,0,10.88,2.75l2.43,2.62,2.69,1.06c2.77,1.13,3.74,2.45,5.31,4.94l-2,1v-2l-2.56-.81a32.87,32.87,0,0,1-6.68-2.88,21.6,21.6,0,0,0-13.76-.31c-2.61,1.85-2.61,1.85-4,4l-7-2v-1h5l.94-2.94C494.84,66.23,496.55,67.07,501.81,66.93Z"/><path class="cls-35" d="M435.12,175.3l4,2c-2.91,4-5.84,7.88-9.12,11.56a34.4,34.4,0,0,0-4.94,7.25c-2.08,3.43-3.12,4.24-6.94,5.19l-2-5,4-1,1-4h2l.38-1.81c.62-2.19.62-2.19,2.62-5.19h2l.69-1.69C430.48,179.67,432.68,177.62,435.12,175.3Z"/><path class="cls-36" d="M227.12,81.3l1,2a32.2,32.2,0,0,1-5.68,9.25c-2.53,2.41-2.53,2.41-2.32,4.75h-2l-.62,2.44a46.6,46.6,0,0,1-5.73,10.06c-2.33,3.54-4.27,7.25-6.26,11a67,67,0,0,1-3.63,5.89,33,33,0,0,0-3.76,7.62h-1c.39-10.16,5.66-17.39,12-25,.95-1.67,1.86-3.36,2.76-5.06C216.18,96.09,221.56,88.64,227.12,81.3Z"/><path class="cls-37" d="M624.12,115.3l2,2-1.86.15-2.45.23-2.42.21c-2.54.31-2.54.31-5.27,2.41l1,3,2.32.38c2.68.62,2.68.62,5.68,2.62v2h2l-2,4-1.31-2.37c-1.58-2.85-1.58-2.85-4.69-4.63a12.73,12.73,0,0,0-9.62,2c-3.38,2-3.38,2-7.38,2,.28-3.36.66-4.68,3.18-7a43.66,43.66,0,0,1,8.76-4.75l3-1.3A20.82,20.82,0,0,1,624.12,115.3Z"/><path class="cls-38" d="M51.12,499.3a28.69,28.69,0,0,1,2,4l-1,2h-2L50,507.16l-.2,2.45L49.64,512c-.6,2.66-1.54,3.46-3.52,5.26q-.52,2.49-1,5c-1,1.68-2,3.34-3,5-.55,1.24-1.09,2.5-1.62,3.75-3,7-6.76,13.62-10.36,20.31-.93,1.78-1.8,3.59-2.67,5.4-1.35,2.54-1.35,2.54-3.35,3.54a28.44,28.44,0,0,1,3.56-10l1.6-2.95L31,544.18a343,343,0,0,0,17.09-38.34C49,503.59,50,501.45,51.12,499.3Z"/><path class="cls-39" d="M306.12,58.3h6v2l6-1a22.35,22.35,0,0,1,4.76,9.56l.79,2.88c.45,2.56.45,2.56-.55,5.56a18.53,18.53,0,0,1-4-1c-2-3-2-3-2.81-6.5s-.87-3.58-3.5-5.37a29.68,29.68,0,0,0-7.69-2.13Z"/><path class="cls-40" d="M232.12,34.3a18.39,18.39,0,0,1-3.62,9.06,195.08,195.08,0,0,0-15.7,27.91,24.49,24.49,0,0,1-5.68,7v-4h2l.76-2.06a68.59,68.59,0,0,1,4.31-8.18,15.43,15.43,0,0,0,1.93-4.76,28.69,28.69,0,0,1,3.19-6.62l1.81-3.38-.68-1.85c-.32-2.15-.32-2.15,1.7-5,.92-1,1.85-2,2.8-3L226.35,38C229.84,34.3,229.84,34.3,232.12,34.3Z"/><path class="cls-41" d="M107.12,246.3l1,3-1.43,1.25c-1.7,1.61-1.7,1.61-2,3.62-.79,2.73-2.08,4-4,6a111.75,111.75,0,0,0-9.63,12.18,128.25,128.25,0,0,1-10.4,13.19,93,93,0,0,0-6.54,8.75l-3-1L72.3,292a153.92,153.92,0,0,0,11.92-15.25c3.29-4.66,6.7-9.2,10.2-13.7C98.73,257.54,102.93,251.93,107.12,246.3Z"/><path class="cls-42" d="M503.12,255.3c5.81,1.07,8.46,3,12.33,7.44,1.91,1.78,3.15,2.1,5.67,2.56,1.35.64,2.69,1.3,4,2v2l5,1v-3l6-1-5,7c-5.5-.62-5.5-.62-7.81-2.37a17,17,0,0,0-6.62-2.94c-4.9-1.52-6.58-3.6-9.57-7.69-1.32-1-2.66-2-4-3Z"/><path class="cls-43" d="M406.12,218.3c-.61,4.46-2.38,8.11-4.43,12.06l-.95,1.86c-.87,1.69-1.74,3.39-2.62,5.08-.66,1.33-1.33,2.67-2,4l-1-2h-3l-1,5c-1-3.13-.93-4,0-7h2l.19-2.44c1.08-4.72,3.33-8.43,5.81-12.56h2l1-3C404.12,218.3,404.12,218.3,406.12,218.3Z"/><path class="cls-44" d="M472.12,159.3c3,1,3,1,4,3l2,.88c2,1.12,2,1.12,2.57,2.81l.43,2.31,1.5,3.44a29.2,29.2,0,0,1,2.5,8.56l-1,2h-2l2,9c-4-4-5.12-10.29-6.39-15.71A84.77,84.77,0,0,0,472.12,159.3Z"/><path class="cls-45" d="M22.12,561.3c1,2,1,2,.38,4.81a19.64,19.64,0,0,1-6.38,8.19h-3A21.86,21.86,0,0,0,10.06,579l-1.53,2.64c-3.89,7.42-4.59,14.49-2.41,22.67-2.6-1.89-3-2.91-3.5-6.15-.13-8.35.78-13.7,5-21.11,2.06-3.85,2.75-7.45,3.46-11.74h3v6c3.5-1.39,4.71-2.71,6.26-6.12l1-2.2Z"/><path class="cls-46" d="M182.12,131.3l5,1c.65,5.92-.91,9.42-3.8,14.57a24.2,24.2,0,0,0-2.2,7.43c4.52-1.47,6-5,8.13-8.94,3.82-7,3.82-7,5.87-10.06l2,1c-1.89,8.92-6.7,15.62-14,21-3-2-3-2-3.81-4.81a13.86,13.86,0,0,1,1.81-8.19h2l3-11-4-1Z"/><path class="cls-47" d="M270.12,280.3h1l1,5,3,1c2.35,4.12,2.24,8.21,2.13,12.81l0,2.1c0,1.7-.06,3.4-.1,5.09l-4-1-.14-2.52-.23-3.29-.21-3.27c-.23-3.1-.23-3.1-2.42-5.92a33.88,33.88,0,0,1-.12-5.19l.05-2.73Z"/><path class="cls-48" d="M420.12,120.3c1,3,1,3-.43,6.31-2.26,3.77-5.2,5.88-8.86,8.23-2,1.73-2.33,2.87-2.71,5.46l6,1a16.7,16.7,0,0,1-3,8l-2-1,3-5-7-1a10.56,10.56,0,0,1-1-4,21.59,21.59,0,0,1,3.5-4.25l2.23-2.36,2.27-2.39q2-2.24,3.94-4.5C419,121.41,419,121.41,420.12,120.3Z"/><path class="cls-49" d="M333.12,134.3h1v33h-3q-.28-4.53-.56-9.06l-.17-2.57a58.6,58.6,0,0,1,.73-14.37h1Z"/><path class="cls-50" d="M642.12,173.3c3.71,2.47,3.62,3.52,4.5,7.75a45,45,0,0,0,4.5,12.25q1,3,2,6l1.19,2.19c.81,1.81.81,1.81-.19,4.81l-1.6-3.29c-.72-1.44-1.43-2.89-2.14-4.33l-1.06-2.16a66.24,66.24,0,0,0-5.44-9.37c-2-3.25-2.19-5-2-8.72l.1-2.93Z"/><path class="cls-51" d="M264.12,155.3l2,3h-2l-1,3v-2c-8.48.35-8.48.35-16,4l-2-1c0-3,0-3,2.19-5.19C252.18,154.06,258.63,154.46,264.12,155.3Z"/><path class="cls-52" d="M123.12,193.3h2c.14,3,.26,5.38-.88,8.19a83.37,83.37,0,0,0-3.53,13.31,94.64,94.64,0,0,1-4.59,14.5h-3l1.31-3.72c1.93-5.81,3.38-11.71,4.82-17.65.52-2.14,1-4.27,1.57-6.4l.69-2.83C122,196.88,122.53,195.08,123.12,193.3Z"/><path class="cls-53" d="M100.12,276.3l2,1c-1.41,4.51-3.69,6.7-7,10-1.44,1.87-2.86,3.77-4.24,5.69A181.42,181.42,0,0,1,77.12,309.3c0-3.59.66-4.16,2.88-6.87l1.93-2.4,2.19-2.73q2.55-3.27,5.07-6.56l1.29-1.68Q95.36,282.71,100.12,276.3Z"/><path class="cls-54" d="M584.12,225.3l3,1c-.75,1.49-1.53,3-2.31,4.44l-1.3,2.5c-1.39,2.06-1.39,2.06-4.39,3.06l-1,13-4.24,1.38c-3.13,1.34-4.48,2.16-6.24,5.11a77,77,0,0,0-2.52,7.51h-3l1-2h2l.38-3.25c1-5.8,1-5.8,2.62-7.75a52.88,52.88,0,0,1,8-2l.19-2.3.25-3,.25-3a18.89,18.89,0,0,1,1.31-5.7h2l.88-2.81A18.53,18.53,0,0,1,584.12,225.3Z"/><path class="cls-55" d="M450.12,168.3a108.78,108.78,0,0,1-5,11l-9-3c1.35-4,3.4-4.87,6.93-7A10.63,10.63,0,0,1,450.12,168.3Z"/><path class="cls-56" d="M616.12,141.3l1,2a106.33,106.33,0,0,1-15.31,18.22c-1.91,1.61-1.91,1.61-1.69,3.78-1,1-2,2-3,3L595.25,171c-2.13,2.31-2.13,2.31-4.87,2.62l-2.26-.31,1.78-.66c3-1.78,4-3.83,5.79-6.78a80.82,80.82,0,0,1,12.93-15.07A54.1,54.1,0,0,0,616.12,141.3Z"/><path class="cls-57" d="M4.12,621.3l2,1c-.94,3.36-1.89,6.69-3,10,0,2.33,0,4.67,0,7l3,1v2l1.94.31,2.06.69,1,3-3,2c-3.69-2.63-6.53-4.73-8.12-9.06C.16,634.31.46,625,4.12,621.3Z"/><path class="cls-58" d="M173.12,95.3l2,1c-.54,3.79-2.11,5.56-5,8h-2a46.73,46.73,0,0,0-5.56,7.69c-1.44,2.31-1.44,2.31-4.44,4.31,1.43-5.23,3.8-9,6.94-13.31l1.34-1.92C169.74,96.43,169.74,96.43,173.12,95.3Z"/><path class="cls-59" d="M294.12,329.3c5.58.23,8.52,1.57,12.63,5.37a9.46,9.46,0,0,1,2.37,6.63h2l-1,4a10.4,10.4,0,0,1-4-1,23.53,23.53,0,0,1-1.74-4.87c-1.33-3.85-1.33-3.85-4.29-6.46a27.68,27.68,0,0,0-6-1.67Z"/><path class="cls-60" d="M359.12,323.3h2c.38,4.66.47,8.05-1.62,12.31-3.52,4-6.33,6.54-11.75,6.94l-2.63-.25c3-2,3-2,5.5-2.69,3.59-1.88,4.26-4.67,5.5-8.31q.86-2.22,1.69-4.44Z"/><path class="cls-61" d="M607.12,131.3a30,30,0,0,1,4,1l-2.33,1.86-3,2.45-3,2.43c-2.74,2.18-2.74,2.18-4.61,5.26l-1.81.38c-4.64,1.32-7.2,5.43-9.5,9.43l-1.69,3.19-1-2c2.65-7.09,6.61-11,13-15l2.72-1.07c2.86-1.16,3.11-2.16,4.28-4.93A10,10,0,0,1,607.12,131.3Z"/><path class="cls-62" d="M196.12,112.3h2a57.2,57.2,0,0,1-6,16h-4c.15-1.46.29-2.92.44-4.37l.25-2.46a9.11,9.11,0,0,1,1.31-4.17l4,1Z"/><path class="cls-63" d="M335.12,184.3c2.53,2.52,2.3,3.51,2.42,7l.12,3,.09,3.13.12,3.15c.09,2.57.18,5.15.25,7.72l-1-4h-2l1-8h-2l1,3-3,1c-.05-1.46-.09-2.91-.12-4.37l-.07-2.46c.19-2.17.19-2.17,2.19-4.17A32.52,32.52,0,0,0,335.12,184.3Z"/><path class="cls-64" d="M485.12,196.3h1l1,11,4,1v3l2,1a31.58,31.58,0,0,1,0,6,22.32,22.32,0,0,1-3,3l-.58-1.83-.79-2.42-.77-2.39a13.45,13.45,0,0,0-2-4.26c-1.23-2.86-1.1-5.25-1-8.35l.05-3.26Z"/><path class="cls-65" d="M39.12,529.3c1,3,1,3-.18,5.9l-1.82,3.48-.95,1.85c-.67,1.28-1.34,2.56-2,3.83q-1.5,2.85-3,5.72c-4.77,9.08-4.77,9.08-7,10.22A32.72,32.72,0,0,1,28,549.38L29.79,546l1.83-3.47L33.46,539C38,530.46,38,530.46,39.12,529.3Z"/><path class="cls-66" d="M118.12,439.3h3l-.06,2.88c-.16,3-.16,3,1.06,5.12.56,5.25-1.05,8.86-3.5,13.38l-1,1.94q-1.23,2.34-2.49,4.68l-2-1,1.1-2c3.72-7.38,5.45-14,3.32-22.23l-.42-1.75Z"/><path class="cls-67" d="M610.12,119.3a7.45,7.45,0,0,1,1,4c-2.56,3.35-4.18,4.8-8.31,5.81l-2.69.19c.3-3.58.75-4.76,3.44-7.25C607.59,119.3,607.59,119.3,610.12,119.3Z"/><path class="cls-68" d="M492.12,77.3v1l-2.95-.14-3.86-.11-3.83-.14c-3.37,0-3.37,0-5.12,2.18l-1.24,2.21q-1.47,1.86-3,3.69l-1.5,1.82c-1.5,1.49-1.5,1.49-4.5,2.49.59-3.37,1.63-4.63,4-7l.88-2.56c1.12-2.44,1.12-2.44,3.19-3.75C480.18,75.59,486.13,76.07,492.12,77.3Z"/><path class="cls-69" d="M269.12,268.3l3,1c1,5.31,1.51,10.63,2,16h-3l-2,2-.18-2.3-.25-3-.25-3a14.2,14.2,0,0,0-1.32-5.7A38.25,38.25,0,0,1,269.12,268.3Z"/><path class="cls-70" d="M580.12,163.3c1.27,3.8.31,5.31-1,9v3h3c1.57,6,1.57,6,0,8.8-1.25,1.47-2.6,2.84-4,4.2-3.76-1.25-4.17-2.59-6-6l-1-2a19.19,19.19,0,0,1,7,5,27.83,27.83,0,0,0,3-5l-1-3a12.91,12.91,0,0,0-4-1A41.6,41.6,0,0,1,580.12,163.3Z"/><path class="cls-71" d="M492.12,70.3c1,2,1,2,1,5l-1,2L489,77.23l-4.1,0-2.07-.05c-3.75,0-6.51.09-9.69,2.17v-4c3.71-2.37,6.93-2.2,11.26-2.12l3.82,0,2.92.07Z"/><path class="cls-72" d="M117.12,475.3h1a40,40,0,0,1-2.18,15.56l-.68,2.05c-.7,2.14-1.42,4.26-2.14,6.39l-1.44,4.37q-1.75,5.32-3.56,10.63c-1.29-3.87-.2-6.27,1-10,.51-1.63,1-3.25,1.51-4.88.82-2.64,1.63-5.28,2.46-7.91l.79-2.59.73-2.33a30.66,30.66,0,0,0,.51-7.29A23.89,23.89,0,0,1,117.12,475.3Z"/><path class="cls-73" d="M128.12,306.3c2.92,3.29,4.5,5.6,5,10l-3.43,1.38c-3.61,1.19-3.61,1.19-4.57,3.62-.12,1.35-.22,2.71-.31,4.06-.5,5.17-2.35,9.35-4.69,13.94-1.14-3.44-.81-4.23.32-7.56a120,120,0,0,0,3.68-15.44l5-1Z"/><path class="cls-74" d="M493.12,215.3l1,3,2,1a22.25,22.25,0,0,1,.76,4.38l.29,2.4c-.05,2.22-.05,2.22-2.05,5.22h-2l-1,2c-2.43-10.82-2.43-10.82-.62-15.75Z"/><path class="cls-75" d="M567.12,175.3h2l2,5-1.8.29c-2.65.86-3.61,1.9-5.38,4l-1.55,1.8a13.94,13.94,0,0,0-2.27,5.89h-3v2l-4,1a88.88,88.88,0,0,1,9.07-12.5,23.94,23.94,0,0,0,3.56-5.31Z"/><path class="cls-76" d="M44.12,335.3h2c.57,5.66-1.28,9.23-4,14h-2l-1,4h-2C39.93,340.17,39.93,340.17,44.12,335.3Z"/><path class="cls-77" d="M655.12,206.3l3,2v3a60.23,60.23,0,0,0,2,10l2,1,1.26,2.38c1.6,2.87,1.6,2.87,4.87,4.18,2.87,1.44,2.87,1.44,3.75,3.63l.12,1.81-2.74-1.87c-3-2.09-3-2.09-5.26-2.89-2.92-1.81-3.73-4.1-5.18-7.18l-1.55-3.21C655.37,214.6,655,211.26,655.12,206.3Z"/><path class="cls-78" d="M206.12,113.3h3c-1.59,3.25-3.28,6.44-5,9.63l-1.56,2.91a14.73,14.73,0,0,1-3.44,4.46c-.69,1.32-1.36,2.65-2,4A31.15,31.15,0,0,1,206.12,113.3Z"/><path class="cls-79" d="M205.12,78.3l2,1-1.42,2.31a74.62,74.62,0,0,0-8.58,18.69h3l1-2,3,1-2,7-1.31-2-1.69-2h-3c-.08-1.77-.13-3.54-.18-5.31l-.11-3c.35-3.18.95-3.66,3.29-5.7.92-1.51,1.8-3.06,2.63-4.62C204,79.38,204,79.38,205.12,78.3Z"/><path class="cls-80" d="M675.12,200.3h1c.17,11,.17,11-.62,15.81-.46,3.88.52,6.47,1.62,10.19.56,6.9.56,6.9-1,10l-4-1,2-2c.2-4.14.31-7.08-1-11-.09-1.7-.12-3.41-.12-5.12v-2.7c.13-2.18.13-2.18,1.13-3.18,0-2,0-4-.06-6S674.12,203.3,675.12,200.3Z"/><path class="cls-81" d="M62.12,573.3c1.81,5.43-.85,10.89-3,16a48,48,0,0,1-7,8c-1-3-1-3-.31-4.84l1.12-2,1.21-2.24,1.3-2.33,2.49-4.55,1.13-2C60.13,577.3,61.13,575.31,62.12,573.3Z"/><path class="cls-82" d="M80.12,493.3c1.33,4,.19,6.71-1,10.56l-.67,2.24c-2.64,8.58-6,16.89-9.33,25.2a20.7,20.7,0,0,1-1-8h2l.92-2.75Z"/><path class="cls-83" d="M118.12,340.3h1l.08,2.08.18,2.73.14,2.71c.4,2.64.4,2.64,2.65,4.31l2,1.17-1,8-1.81-1c-2.24-1.21-2.24-1.21-5.19-1l-1,5h-1a50,50,0,0,1,0-6l2-2a19.18,19.18,0,0,1,4,1l-1-2.31C117.79,350.05,118,345.39,118.12,340.3Z"/><path class="cls-84" d="M631.12,102.3c2,2,2,2,2.13,5.13l-.13,2.87h2l1,4h2l1,8c-2.45-2-3.16-3.42-4.37-6.44-2.67-5.86-6.94-7.91-12.63-10.56a27.36,27.36,0,0,1,9-1Z"/><path class="cls-85" d="M634.12,171.3c2-.27,4-.6,6-1l1,2-3.43.63c-7.66,1.91-13.73,7.28-19.57,12.37.56-3.57,1.67-4.88,4.5-7.06,2.67-2.06,3.4-2.63,4.5-5.94C630.07,170.34,630.64,170.14,634.12,171.3Z"/><path class="cls-86" d="M127.12,382.3l2,2-1,2,5,1c1.13,6.63,1.13,6.63,0,10a16.73,16.73,0,0,1-4,1l.44-1.69c.59-2.42,1.09-4.86,1.56-7.31-3.11.67-3.11.67-4.18,3.06l-.82,1.94h-1C124.84,385.73,124.84,385.73,127.12,382.3Z"/><path class="cls-87" d="M144.12,279.3l2,1-1,1.26a112,112,0,0,0-10.25,16.08c-2.51,4.56-2.51,4.56-4.72,5.66l-1-4,1.83-1.14c2.66-2.27,3.57-4.34,4.93-7.55l1.29-3,1-2.3h2l.32-1.87C141.12,281.3,141.12,281.3,144.12,279.3Z"/><path class="cls-88" d="M33.12,467.3l2,1-1,3h-2c-.36,1.46-.71,2.92-1.06,4.38l-.6,2.46c-.56,2.2-.56,2.2.66,4.16a34,34,0,0,1-1.43,4.63l-.87,2.47-.7,1.9h-2c2.33-16,2.33-16,4-22Z"/><path class="cls-89" d="M611.12,132.3h12l-4,2a28,28,0,0,0-1,7h-1v-5l-3.31,1.44c-2.22,1-4.38,1.79-6.69,2.56l2-4h3Z"/><path class="cls-90" d="M156.12,122.3h2c-.57,4-1.88,6.58-4,10-1.06,2.31-2,4.65-3,7l-1-2,1-2h-2c.62-4,2.71-6.73,5-10Z"/><path class="cls-91" d="M334.12,138.3h1l.08,2.74.3,10.12.12,4.37q.09,3.15.19,6.31l.11,3.82a34.13,34.13,0,0,0,.85,7.48l.35,3.16-2,2A52.17,52.17,0,0,1,334,165.16v-2.34l0-7.33c0-1.66,0-3.33,0-5Q334.1,144.4,334.12,138.3Z"/><path class="cls-92" d="M256.12,86.3a10.09,10.09,0,0,1,1,4,28.83,28.83,0,0,1-3.31,5.19l-1.92,2.67c-1.77,2.14-1.77,2.14-3.77,3.14.33-1.67.66-3.33,1-5l.26-2c1.14-3.06,3.38-4.81,5.74-7Z"/><path class="cls-93" d="M285.12,316.3c3.05.33,4,1,6.19,3.25a15.25,15.25,0,0,1,2.81,7.75c-3.83-.55-5.4-2.23-8-5l-3-2h2Z"/><path class="cls-94" d="M292.12,59.3v6a29.83,29.83,0,0,1-4,2l-2-1v-3h-14v-1l3.4-.15,4.42-.22,2.23-.1C285.73,61.64,289.21,59.3,292.12,59.3Z"/><path class="cls-95" d="M77.12,276.3a9,9,0,0,1,1,4,34.75,34.75,0,0,1-3.81,5.63l-2.2,2.91a38,38,0,0,1-4,4.46l-2-2q2.47-3.46,4.94-6.94l1.42-2C76,277.41,76,277.41,77.12,276.3Z"/><path class="cls-96" d="M67.12,453.3h1c.27,4.36-.69,7.86-2,12l-.93,3.25a11.64,11.64,0,0,1-4.07,5.75C61.69,468.24,62.77,457.66,67.12,453.3Z"/><path class="cls-97" d="M313.12,342.3h7l2,6c-3,1-3,1-4.82.22l-5.18-3.22Z"/><path class="cls-98" d="M645.12,116.3l2.13,1.38a39.19,39.19,0,0,0,8.87,3.5c5,1.58,7.8,3,11,7.12l-1.73-.94a23.93,23.93,0,0,0-6.51-1.93c-4.51-1-9.07-2.25-12.76-5.13A16.45,16.45,0,0,1,645.12,116.3Z"/><path class="cls-99" d="M397.12,226.3l1,4h-2a26.09,26.09,0,0,0,0,5l2,2-2,4-1-2h-3l-1,5c-1-3.13-.93-4,0-7h2l.32-2.69A21,21,0,0,1,397.12,226.3Z"/><path class="cls-100" d="M394.12,169.3l3,1-2.81,3.81-1.58,2.15a24.45,24.45,0,0,1-3.24,3.62c-1.63,1.49-1.63,1.49-2.37,4.42h-2l-1-3,2.19-2.06A65.88,65.88,0,0,0,394.12,169.3Z"/><path class="cls-101" d="M420.12,120.3c1,3,1,3-.62,6.5a15.12,15.12,0,0,1-7.38,6.5l-1-3Z"/><path class="cls-102" d="M68.12,617.3c1.5,4.49-.26,7.7-1.74,12.06l-.81,2.51-.8,2.4-.74,2.2c-.91,1.83-.91,1.83-3.91,3.83l.44-1.69c.59-2.42,1.09-4.86,1.56-7.31h2l.12-1.79C64.64,624.69,65.16,621.29,68.12,617.3Z"/><path class="cls-103" d="M7.12,577.3l2,3a87.08,87.08,0,0,1-4,9,47.22,47.22,0,0,0,1,15,10.07,10.07,0,0,1-3-3C2,592.74,2.58,584.79,7.12,577.3Z"/><path class="cls-104" d="M480.12,175.3l4,1c1.13,3.75,1.13,3.75,0,6h-2l2,9c-2.91-2.92-3.88-6.05-4.12-10.17C480,179.19,480.06,177.24,480.12,175.3Z"/><path class="cls-105" d="M580.12,131.3c2,3,2,3,1.88,4.81a30.64,30.64,0,0,1-4.88,8.19,13.32,13.32,0,0,1-5,1l1-1.54A114.54,114.54,0,0,0,580.12,131.3Z"/><path class="cls-106" d="M299.12,56.3c2.63-.08,5.25-.14,7.88-.19l2.26-.07a43.76,43.76,0,0,1,5.86.26l2,3-5,1v-2l-3.18,1.06c-3.61.89-5.34,1-8.82-.06Z"/><path class="cls-107" d="M645.12,187.3h3a74.87,74.87,0,0,1,5,12l1.19,2.19c.81,1.81.81,1.81-.19,4.81l-3.93-7.81-1.13-2.24L648,194.09l-1-2A30,30,0,0,1,645.12,187.3Z"/><path class="cls-108" d="M621.12,103.3c-3.2,1.64-6.46,3.14-9.74,4.63l-3,1.35-2.27,1-2-2C609.83,103.34,613.65,102.63,621.12,103.3Z"/><path class="cls-109" d="M440.12,101.3l2,1v2l2,1-6,6-2-1-3,1C434.79,107.36,437.35,104.51,440.12,101.3Z"/><path class="cls-110" d="M529.12,91.3l3,1v2l1.82.13c2.18.87,2.18.87,4,3.75,1.18,3.12,1.18,3.12.18,6.12-1.37-1.29-2.7-2.63-4-4v-2l-3-1A44,44,0,0,1,529.12,91.3Z"/><path class="cls-111" d="M156.12,117.3l4,1h-2l-.81,2.81c-1.18,3.17-1.92,3.92-4.19,6.19a31.36,31.36,0,0,0-2.18,4.19l-1.05,2.17-.77,1.64h-2a92.53,92.53,0,0,1,5.63-11.81l1-1.81Q154.93,119.49,156.12,117.3Z"/><path class="cls-112" d="M137.12,335.3h1c.09,5,0,9.95-.31,14.94l-.17,2.78c-.52,2.28-.52,2.28-3.52,4.28A115.55,115.55,0,0,1,137.12,335.3Z"/><path class="cls-113" d="M560.12,265.3v1c-3.43.23-6.87.43-10.31.63l-3,.19-2.84.16-2.62.16c-2.27-.14-2.27-.14-5.27-2.14C544.66,263.54,551.65,263.09,560.12,265.3Z"/><path class="cls-114" d="M142.12,313.3h1c-.14,1.9-.28,3.79-.43,5.69l-.25,3.2c-.45,4.45-.81,7.35-3.32,11.11C138.76,326,139.31,320.09,142.12,313.3Z"/><path class="cls-115" d="M575.12,143.3l1,2a44.67,44.67,0,0,1-2.93,5.13l-1.72,2.75-1.35,2.12-3-1C569,149.17,570.45,146.46,575.12,143.3Z"/><path class="cls-116" d="M6.12,640.3v2l1.94.31,2.06.69,1,3-3,2-7-6C4.12,640.3,4.12,640.3,6.12,640.3Z"/><path class="cls-117" d="M125.12,415.3l3,1-1,1.81c-1.2,2.25-1.2,2.25-1,5.19l-3,1a42.38,42.38,0,0,0-2,7h-1C120.42,424.88,121.58,420.68,125.12,415.3Z"/><path class="cls-118" d="M268.12,67.3l4,2-5,6-4-1A19.48,19.48,0,0,1,268.12,67.3Z"/><path class="cls-119" d="M42.12,456.3h2c-.32,7.6-2.12,14-5,21-1.95-5.88.37-11.47,2.38-17.08A6.35,6.35,0,0,0,42.12,456.3Z"/><path class="cls-120" d="M165.12,282.3l1,4c-3,0-3,0-5-1l-1,11-3-1c.37-1.8.78-3.59,1.19-5.37l.67-3c1.14-2.6,1.14-2.6,3.76-3.95Z"/><path class="cls-121" d="M267.12,195.3h3v6h-2l-1,5c-2-2-2-2-2-3.91C266,196.41,266,196.41,267.12,195.3Z"/><path class="cls-122" d="M137.12,412.3h1c-.51,6.84-2.48,12.64-5,19a17.55,17.55,0,0,1,0-10l2-2C135.84,417,136.52,414.65,137.12,412.3Z"/><path class="cls-123" d="M129.12,388.3l3,1c-.49,3.69-1.1,5.61-4,8v-2l-3-1Z"/><path class="cls-124" d="M88.12,337.3h2a59,59,0,0,1-6,14l-2,1C82.58,346.45,85.16,342.22,88.12,337.3Z"/><path class="cls-124" d="M64.12,324.3l1,2c-.94,2-2,4-3,6l-1,3h-2l-2,4-1-3a41.76,41.76,0,0,1,3.38-5.62l2-3A17,17,0,0,1,64.12,324.3Z"/><path class="cls-125" d="M273.12,293.3h1l1,5h2v8l-4-1Z"/><path class="cls-126" d="M495.12,226.3a20.35,20.35,0,0,1,4,7,24.81,24.81,0,0,1-1,4l-5-1v-5h2Z"/><path class="cls-127" d="M435.12,175.3l4,2c-3.32,4.8-3.32,4.8-6.74,5.81l-2.26.19c0-3,0-3,2.5-5.69Z"/><path class="cls-128" d="M445.12,92.3h1l1,10-6,4-1-3,1.94-1.56C444.68,98.64,444.82,96.28,445.12,92.3Z"/><path class="cls-129" d="M51.12,499.3a28.69,28.69,0,0,1,2,4l-1,2h-2l-.31,2.19a23.36,23.36,0,0,1-3.69,7.81c-1-2-1-2,0-5l1.41-3.56,1.4-3.57C50.12,500.3,50.12,500.3,51.12,499.3Z"/><path class="cls-130" d="M71.12,369.3a19.82,19.82,0,0,1,1,4,41.24,41.24,0,0,1-4,5l-1.62,2.75c-1.38,2.25-1.38,2.25-3.38,3.25C64.61,378.5,67.72,374.13,71.12,369.3Z"/><path class="cls-131" d="M82.12,279.3l1,3a69.57,69.57,0,0,1-4.43,6.19l-1.32,1.69c-1.07,1.38-2.16,2.75-3.25,4.12l-3-1,1.4-1.54A91.81,91.81,0,0,0,82.12,279.3Z"/><path class="cls-132" d="M568.12,149.3l1,2-1,3,1,3-2,2-1-2-5,4-2-1,1.47-1.64,1.91-2.17,1.9-2.15A27.23,27.23,0,0,0,568.12,149.3Z"/><path class="cls-133" d="M80.12,370.3h2c-1.57,6-4.75,10.83-8,16l-1-2a47.81,47.81,0,0,1,2.32-5.44l1.36-2.93A35.66,35.66,0,0,1,80.12,370.3Z"/><path class="cls-134" d="M266.12,260.3C271,264,271,264,271.46,267.64c0,2.24-.12,4.43-.34,6.66h-1l-1-5-2,4Z"/><path class="cls-135" d="M668.12,129.3c5.62,3.92,8.7,8.52,11,15l-1,2-2.5-3.87-1.4-2.18c-1.1-1.95-1.1-1.95-1.1-3.95h-2C668.12,131.92,668.12,131.92,668.12,129.3Z"/><path class="cls-136" d="M472.12,76.3l2,1-2,2c-1,2.32-2,4.65-3,7h-2v5h-2v-2l-3,1c1-3,1-3,3.38-4.25,3.63-2.42,4.13-4.7,5.62-8.75Z"/><path class="cls-137" d="M206.12,50.3l1,2a45.08,45.08,0,0,1-7,10h-3a30.33,30.33,0,0,1,5.63-8.25l1.91-2.14Z"/><path class="cls-138" d="M115.12,365.3l5,4-1,3-1.87.81c-3,1.71-3.77,4.07-5.13,7.19l-1-3a34.06,34.06,0,0,1,4-6h2Z"/><path class="cls-139" d="M49.12,348.3l2,1c-1.5,5-4.55,8.24-8,12l-1-3a38,38,0,0,1,3.44-5.19l2-2.73Z"/><path class="cls-140" d="M329.12,345.3v2l4-1a62,62,0,0,1-5,5h-3v-2l-2-1C326.88,345.3,326.88,345.3,329.12,345.3Z"/><path class="cls-141" d="M94.12,324.3h2c-.26,4.46-.57,6.52-3.56,9.94l-2.44,2.06c.29-1.44.58-2.87.88-4.31l.49-2.43C92.12,327.3,92.12,327.3,94.12,324.3Z"/><path class="cls-142" d="M536.12,267.3c-3,4.32-3,4.32-5,6a14.59,14.59,0,0,1-6-1c3-2,3-2,5-2v-3C532.62,266.06,533.54,266.52,536.12,267.3Z"/><path class="cls-143" d="M513.12,263.3c8.87.74,8.87.74,12,4v2h2v2h-3v-3l-1.89-.4-2.48-.54-2.46-.52a13.52,13.52,0,0,1-4.17-1.54Z"/><path class="cls-144" d="M580.12,163.3c1.27,3.8.31,5.31-1,9v3h3l-1,3-5-2A41.6,41.6,0,0,1,580.12,163.3Z"/><path class="cls-145" d="M253.12,155.3c1.8-.08,3.59-.14,5.38-.19l3-.1,2.6.29,2,3-13-1Z"/><path class="cls-146" d="M62.12,573.3c1.29,3.86.41,5.41-.93,9.19L60,585.78l-.92,2.52c-2-3-2-3-1.87-5.25A44.21,44.21,0,0,1,62.12,573.3Z"/><path class="cls-147" d="M74.12,310.3l2,1a64.21,64.21,0,0,1-9,12l-1-2Z"/><path class="cls-148" d="M502.12,247.3a69.82,69.82,0,0,1,7,10c-5.58-1.45-5.58-1.45-7.43-3.87A8.72,8.72,0,0,1,502.12,247.3Z"/><path class="cls-149" d="M336.12,186.3h1l1,22-1-4h-2Z"/><path class="cls-150" d="M266.12,161.3h2a49.62,49.62,0,0,1,1,11h-3Z"/><path class="cls-151" d="M610.12,123.3c8.13-.47,8.13-.47,11.57,1.38,1.43,1.62,1.43,1.62,1.43,3.62h2l-2,4-1.31-2.37c-1.58-2.85-1.58-2.85-4.69-4.63-2.33-.08-4.66-.09-7,0Z"/><path class="cls-152" d="M85.12,534.3h1c.31,4.17-.54,6.65-2.5,10.31l-1.4,2.68-1.1,2c-1.25-3.75-.51-5,.88-8.62l1.12-3C84.12,535.3,84.12,535.3,85.12,534.3Z"/><path class="cls-153" d="M91.12,517.3c1.54,4.65,0,7.73-2,12a26.15,26.15,0,0,1-3,4C86.73,527.54,88.88,522.58,91.12,517.3Z"/><path class="cls-154" d="M112.12,496.3c1.36,4.08-.05,6.82-1.43,10.69l-.74,2.13c-.6,1.73-1.21,3.45-1.83,5.18C106.19,508.51,110,501.8,112.12,496.3Z"/><path class="cls-155" d="M80.12,313.3l1,2a111.14,111.14,0,0,1-6,10h-3a42.9,42.9,0,0,1,5.13-8.25l1.63-2.14Z"/><path class="cls-156" d="M584.12,225.3l3,1q-1.17,2.22-2.37,4.44l-1.34,2.5c-1.29,2.06-1.29,2.06-3.29,3.06A22.32,22.32,0,0,1,584.12,225.3Z"/><path class="cls-157" d="M201.12,194.3h2a15,15,0,0,1-1,5,27.45,27.45,0,0,1-5,2l-1,2a25.41,25.41,0,0,1-4,1v-2a46.42,46.42,0,0,1,3.94-3.56l2.22-1.88,1.84-1.56Z"/><path class="cls-158" d="M631.12,170.3l3,1c2-.27,4-.6,6-1l1,2c-5.16,1.51-8.65,2.34-14,1A26.74,26.74,0,0,1,631.12,170.3Z"/><path class="cls-159" d="M467.12,155.3l1,2a20.54,20.54,0,0,0,4,1v1l-2.11.4-2.76.54-2.74.53a9.69,9.69,0,0,0-4.39,1.53v-3Z"/><path class="cls-160" d="M446.12,92.3l1,2,6-1-1,2h-2l-2,6c-2-2-2-2-2.12-5.62Z"/><path class="cls-161" d="M294.12,329.3c4.56.44,7.58.85,11,4l-1,3-1.06-1.37c-2.71-2.28-5.54-2.8-8.94-3.63Z"/><path class="cls-162" d="M128.12,306.3c2.89,3.26,4.64,5.6,5,10-1,1-1,1-4.06,1.06l-2.94-.06,3-2Z"/><path class="cls-163" d="M393.12,148.3l.38,1.69a59.47,59.47,0,0,0,2.62,7.31l-2,1-1-3-5,2-1-2,1.88-1.81A18.31,18.31,0,0,0,393.12,148.3Z"/><path class="cls-164" d="M227.12,81.3l1,2a25.2,25.2,0,0,1-7,10l-2-1Z"/><path class="cls-165" d="M67.12,578.3l1,2-2,4,1,2-2,1-2,3-4-1,1.76-1.56A42.71,42.71,0,0,0,67.12,578.3Z"/><path class="cls-166" d="M25.12,509.3h1c1.28,6.48.69,10-2,16h-1A53.85,53.85,0,0,1,25.12,509.3Z"/><path class="cls-167" d="M127.12,382.3l2,2a20.51,20.51,0,0,1-.74,4.56l-.55,2.45c-.71,2-.71,2-2.71,3C124.84,385.73,124.84,385.73,127.12,382.3Z"/><path class="cls-168" d="M133.12,163.3h2a88.46,88.46,0,0,1-3,12l-2,1C130.6,171.59,131.09,167.64,133.12,163.3Z"/><path class="cls-169" d="M244.12,160.3l1,2,2,1c-3.4,2.1-6.05,2.18-10,2v-2Z"/><path class="cls-170" d="M616.12,141.3l1,2-8,11-3-1,1.68-1.86L610,149l2.18-2.43A26.71,26.71,0,0,0,616.12,141.3Z"/><path class="cls-171" d="M613.12,100.3l2,1-1,3a27.1,27.1,0,0,1-4,1l-2,1.13c-2.43,1.06-3.54.75-6-.13l2.69-1.31a36.07,36.07,0,0,0,6.07-3.44Z"/><path class="cls-172" d="M472.12,78.3c1.28,3.83.53,5.34-1,9a11.17,11.17,0,0,1-3,3h-2c.59-3.37,1.63-4.63,4-7A32.52,32.52,0,0,0,472.12,78.3Z"/><path class="cls-173" d="M233.12,73.3l1,3A29.74,29.74,0,0,1,231.19,81l-1.72,2.45-1.35,1.86-1-2A42.63,42.63,0,0,1,233.12,73.3Z"/><path class="cls-174" d="M512.12,70.3c8.64,3.86,8.64,3.86,11,8l-2,1v-2l-2.81-.81c-2.94-1.1-4.34-1.72-6.19-4.19Z"/><path class="cls-175" d="M243.12,61.3l1,2c-.9,1.49-1.82,3-2.74,4.44l-1.55,2.5C238,72.52,237,73,234.12,73.3A109.46,109.46,0,0,1,243.12,61.3Z"/><path class="cls-176" d="M221.12,49.3a10.41,10.41,0,0,1,1,4,35.94,35.94,0,0,1-2.93,5.75l-1.72,3-1.35,2.26c-1-2-1-2-.31-4.69A70.72,70.72,0,0,1,221.12,49.3Z"/><path class="cls-177" d="M54.12,400.3c1.12,2.8,1,3.9,0,6.8l-1.44,2.95-1.44,3-1.13,2.26c-1.32-4-.23-5.4,1.44-9.19L53,402.82Z"/><path class="cls-178" d="M130.12,371.3h2a8.32,8.32,0,0,1,1,4,35.17,35.17,0,0,1-4,6h-1C128,377.35,128,374.7,130.12,371.3Z"/><path class="cls-179" d="M33.12,362.3c1.16,3.48.71,5.46,0,9h-4a61.55,61.55,0,0,1,2-8Z"/><path class="cls-180" d="M384.12,158.3l3,1c-1.11,1.34-2.24,2.67-3.37,4l-1.9,2.25-1.73,1.75h-2A18.85,18.85,0,0,1,384.12,158.3Z"/><path class="cls-181" d="M395.12,149.3l4,2v3l-4,2-2-5Z"/><path class="cls-182" d="M164.12,104.3c1,3,1,3-.18,6a15.27,15.27,0,0,1-5.82,6A37.26,37.26,0,0,1,164.12,104.3Z"/><path class="cls-183" d="M28.12,478.3l1,3,2,1-3,9h-2Z"/><path class="cls-184" d="M104.12,479.3l2,3a24.12,24.12,0,0,1-1.87,5.19l-1.18,2.73-.95,2.08c-1.18-3.43-.8-5.38.44-8.75l.87-2.42Z"/><path class="cls-185" d="M118.12,439.3h3l-1,13h-1l-.43-3.75a50.66,50.66,0,0,0-1.19-6.69l-.38-1.56Z"/><path class="cls-186" d="M353.12,202.3h2l1,3h-2v2c-3.46,3-3.46,3-6,3A33.68,33.68,0,0,1,353.12,202.3Z"/><path class="cls-187" d="M452.12,163.3h7a15.54,15.54,0,0,1-3,4,28.42,28.42,0,0,1-6,1Z"/><path class="cls-188" d="M610.12,119.3c1.13,3.75,1.13,3.75,0,6h-5a40.93,40.93,0,0,1,1-5C608.12,119.3,608.12,119.3,610.12,119.3Z"/><path class="cls-189" d="M538.12,98.3c6.93,5.42,6.93,5.42,8,9l-1,3-.74-2.94-1.26-3.06a6.47,6.47,0,0,0-4-1Z"/><path class="cls-190" d="M445.12,173.3v6l-7-2v-2C444,173.3,444,173.3,445.12,173.3Z"/><path class="cls-191" d="M480.12,74.3l13,1-1,2c-1.43-.11-2.87-.24-4.31-.37l-2.42-.21C483.12,76.3,483.12,76.3,480.12,74.3Z"/><path class="cls-192" d="M318.12,61.3l3,2a31.62,31.62,0,0,1,0,6l-4-1Z"/><path class="cls-193" d="M107.12,246.3l1,3-1.43,1.25a9.59,9.59,0,0,0-2.57,5.75l-4-1Z"/><path class="cls-194" d="M114.12,228.3h1a33,33,0,0,1-1,10l-2,2c-.05-1.62-.09-3.25-.12-4.87l-.07-2.75C112.12,230.3,112.12,230.3,114.12,228.3Z"/><path class="cls-195" d="M335.12,179.3h1c-.08,1.63-.19,3.25-.31,4.88l-.17,2.74c-.52,2.38-.52,2.38-3.52,4.38l-1-4,2-1C333.86,184,334.53,181.65,335.12,179.3Z"/><path class="cls-196" d="M453.12,89.3l1,3h-5v2h-2l-1-3C449.12,89.3,449.12,89.3,453.12,89.3Z"/><path class="cls-197" d="M44.12,335.3h2a46.16,46.16,0,0,1,0,6l-2,2-1-3-2-1A43.42,43.42,0,0,1,44.12,335.3Z"/><path class="cls-198" d="M360.12,319.3a13.71,13.71,0,0,1,3,3,16.16,16.16,0,0,1-.31,4.69l-.36,2.45-.33,1.86h-1v-8l-4,1Z"/><path class="cls-199" d="M486.12,210.3h4c1.26,6.63,1.26,6.63-1,10l-1.46-6.05A10.69,10.69,0,0,0,486.12,210.3Z"/><path class="cls-200" d="M240.12,101.3c1,4,1,4,0,6q-3,1.1-6,2Z"/><path class="cls-201" d="M622.12,99.3v2c-2.9,1.26-4.79,2-8,2l1-3C617.59,99.07,619.4,99.23,622.12,99.3Z"/><path class="cls-202" d="M11.12,565.3h3v4h-2l-1,5C10,571,10.28,568.68,11.12,565.3Z"/><path class="cls-203" d="M40.12,439.3l2,1-1.43,2.25a23.29,23.29,0,0,0-2.57,6.75l-2,2C36.59,446.53,37.37,443.26,40.12,439.3Z"/><path class="cls-204" d="M43.12,370.3l2,1-1.93,1.5c-2.88,3.49-2.77,6-3.07,10.5h-1c-.1-1.6-.18-3.21-.24-4.81l-.15-2.71c.39-2.48.39-2.48,2.41-4.3Z"/><path class="cls-205" d="M32.12,371.3h4c-1.24,3.65-1.67,4.78-5,7Z"/><path class="cls-206" d="M34.12,359.3h3l-3,9c-1.68-5.06-1.68-5.06-2-7Z"/><path class="cls-207" d="M100.12,276.3l2,1c-1.26,3.92-2.51,5.79-6,8A15.45,15.45,0,0,1,100.12,276.3Z"/><path class="cls-208" d="M417.12,197.3l1,4-3,1-1,3-2-1C414.88,198.43,414.88,198.43,417.12,197.3Z"/><path class="cls-209" d="M319.12,67.3l3,1a18.19,18.19,0,0,1-4,6c-1-1-1-1-1.06-3.56l.06-2.44Z"/><path class="cls-210" d="M22.12,561.3c1,2,1,2,.32,5-1.32,3-1.32,3-5.32,5Z"/><path class="cls-211" d="M86.12,368.3h1q.59,3,1,6l-1,1c-.36,2.33-.7,4.66-1,7h-1L85.06,377l0-3A13.51,13.51,0,0,1,86.12,368.3Z"/><path class="cls-212" d="M275.12,312.3h3v2h2l1,6C276.25,315.68,276.25,315.68,275.12,312.3Z"/><path class="cls-213" d="M167.12,279.3h2l-1,8-3,1Z"/><path class="cls-214" d="M77.12,276.3a9.14,9.14,0,0,1,1,4,23.63,23.63,0,0,1-4,4l-2-2Z"/><path class="cls-215" d="M574.38,250.61l1.74.69-2.24,1.19a24.76,24.76,0,0,0-6.76,6.81c.49-5.45.49-5.45,2.82-7.94C572.12,250.3,572.12,250.3,574.38,250.61Z"/><path class="cls-216" d="M662.12,227.3c3.31.55,6.2,1.1,9,3a12.86,12.86,0,0,1,1,4l-2.74-1.87a55.38,55.38,0,0,0-7.26-4.13Z"/><path class="cls-217" d="M605.12,154.3l3,1-7,6C602.08,157.46,602.36,156.7,605.12,154.3Z"/><path class="cls-218" d="M108.12,464.3l4,2a48.64,48.64,0,0,1-5,6Z"/><path class="cls-219" d="M141.12,322.3c1.12,3.35.92,4.67,0,8l-2,3c-.05-1.46-.09-2.91-.12-4.37l-.07-2.46C139.12,324.3,139.12,324.3,141.12,322.3Z"/><path class="cls-130" d="M106.12,265.3a16.23,16.23,0,0,1,1,4,44,44,0,0,1-4,6l-1-2a28.55,28.55,0,0,1,1.94-4.12l1.15-2.2Z"/><path class="cls-220" d="M601.12,109.3h5a22.24,22.24,0,0,1-8,6v-3h3Z"/><path class="cls-221" d="M249.12,92.3l1,4-6,4-2-1,4.59-3.71C248.26,94.33,248.26,94.33,249.12,92.3Z"/><path class="cls-222" d="M533.12,90.3c2.8,2.53,4.46,4.21,5,8l-2,1v-4l-3-1Z"/><path class="cls-223" d="M465.12,89.3l-1,3h-5l-1-3C461.26,88.26,462.11,88.37,465.12,89.3Z"/><path class="cls-224" d="M205.12,78.3l2,1-5,9c-1-3-1-3,.38-6.12C204.12,79.3,204.12,79.3,205.12,78.3Z"/><path class="cls-225" d="M27.12,551.3h1a48.72,48.72,0,0,1-1,7l-3,2A26.49,26.49,0,0,1,27.12,551.3Z"/><path class="cls-226" d="M559.12,189.3l2,2-4,1v2l-4,1c1-2.62,1.65-3.79,4.13-5.25Z"/><path class="cls-227" d="M225.12,173.3h2l1,4h-4C224.12,174.3,224.12,174.3,225.12,173.3Z"/><path class="cls-228" d="M611.12,132.3h2a16.07,16.07,0,0,1,0,5c-2,2-3.11,3-6,3l2-4h3Z"/><path class="cls-229" d="M203.12,94.3h2l-1,5h-2l-1,2C202,95.43,202,95.43,203.12,94.3Z"/><path class="cls-230" d="M265.12,68.3c0,3,0,3-2.5,5.69l-2.5,2.31-2-1Z"/><path class="cls-231" d="M220.12,69.3l1,3-4,4a23.18,23.18,0,0,1,0-5Z"/><path class="cls-232" d="M196.12,62.3l4,1-3,4-3-1Z"/></g></g></svg>